
<svg width="150px" height="44px" viewBox="0 0 150 44" version="1.1" xmlns="http://www.w3.org/2000/svg" xmlns:xlink="http://www.w3.org/1999/xlink">
    <g id="Page-1" stroke="none" stroke-width="1" fill="none" fill-rule="evenodd">
        <g id="forside-copy-20" transform="translate(-1021.000000, -2756.000000)" fill-rule="nonzero">
            <g id="Group-7" transform="translate(1021.000000, 2756.000000)">
                <path d="M149.733155,38.9899541 C149.733155,41.3625464 147.809789,43.2859126 145.437196,43.2859126 L4.5446284,43.2859126 C2.16849239,43.2886542 0.239268467,41.3660854 0.23379928,38.9899541 L0.23379928,4.70324841 C0.237445468,2.32502467 2.16640187,0.399025657 4.5446284,0.399028452 L145.427283,0.399028452 C146.568075,0.399026343 147.662022,0.852768841 148.467909,1.66020502 C149.273795,2.46764121 149.725435,3.56245865 149.723241,4.70324841 L149.723241,38.9899541 L149.733155,38.9899541 Z" id="Shape" fill="#FFFFFF"></path>
                <g id="Group-4">
                    <path d="M149.733155,38.9899541 C149.733155,41.3625464 147.809789,43.2859126 145.437196,43.2859126 L4.5446284,43.2859126 C2.16849239,43.2886542 0.239268467,41.3660854 0.23379928,38.9899541 L0.23379928,4.70324841 C0.237445468,2.32502467 2.16640187,0.399025657 4.5446284,0.399028452 L145.427283,0.399028452 C146.568075,0.399026343 147.662022,0.852768841 148.467909,1.66020502 C149.273795,2.46764121 149.725435,3.56245865 149.723241,4.70324841 L149.723241,38.9899541 L149.733155,38.9899541 Z" id="Shape" fill="#9D9D9D"></path>
                    <path d="M34.1421299,22.2373682 C34.1107363,18.6998116 37.0402496,16.9781237 37.1740852,16.8971614 C35.5217935,14.4782063 32.9442184,14.1477479 32.0404148,14.1229636 C29.8792172,13.8949473 27.7841113,15.4150557 26.683685,15.4150557 C25.5832587,15.4150557 23.8665276,14.1444433 22.0407452,14.1807938 C19.6911864,14.2171442 17.4919861,15.5786326 16.2858131,17.6902614 C13.7974618,21.9977859 15.6546377,28.3260632 18.0372424,31.8074419 C19.230197,33.5142593 20.6247312,35.4160471 22.4488613,35.3499554 C24.2333364,35.2772546 24.8992099,34.2131787 27.0521461,34.2131787 C29.2050822,34.2131787 29.8131255,35.3499554 31.6785629,35.3069958 C33.593569,35.2772546 34.7980897,33.5935693 35.949737,31.8735336 C36.8070692,30.6595307 37.4662735,29.317141 37.9027458,27.8964674 C37.8597862,27.8799445 34.1850894,26.4771488 34.1470867,22.2373682 L34.1421299,22.2373682 Z M30.6277054,11.8279303 C31.5876868,10.6283665 32.245299,8.99590232 32.0618946,7.33865371 C30.6739695,7.4014408 28.9357586,8.3002875 27.9311653,9.47341463 C27.0455369,10.5077492 26.2557414,12.2030006 26.4589733,13.7974621 C28.020389,13.9131225 29.6214597,13.0093189 30.6227485,11.8279303 L30.6277054,11.8279303 Z" id="Shape" fill="#F9F7F5"></path>
                    <path d="M59.9922342,33.738971 L57.4972737,33.738971 L56.1324808,29.4430125 L51.3837943,29.4430125 L50.0817884,33.738971 L47.6545719,33.738971 L52.3602987,19.1277552 L55.2650276,19.1277552 L59.9922342,33.738971 Z M55.7194078,27.6469713 L54.4851459,23.8318297 C54.3540641,23.4418889 54.1084234,22.5243162 53.7482238,21.0791117 L53.7036119,21.0791117 C53.5582102,21.7003734 53.3268894,22.6179461 53.0096494,23.8318297 L51.795215,27.6469713 L55.7194078,27.6469713 Z M72.0688345,28.3409339 C72.0688345,30.1331196 71.5819592,31.5491336 70.6082086,32.5889759 C69.7756479,33.4976064 68.5919011,34.0033782 67.359803,33.976901 C65.9652688,33.976901 64.9623277,33.4812134 64.3509798,32.4898384 L64.3509798,38.0167542 L62.0096824,38.0167542 L62.0096824,26.6655101 C62.0096824,25.5408502 61.9810427,24.3842459 61.9237633,23.1956974 L63.9825188,23.1956974 L64.1130498,24.8645121 L64.1576617,24.8645121 C64.9375434,23.6065673 66.1227873,22.9775949 67.7133935,22.9775949 C68.9228232,22.964471 70.0702778,23.5116623 70.8213542,24.4597006 C71.6486016,25.4444665 72.0633268,26.7382109 72.0655299,28.3409339 L72.0688345,28.3409339 Z M69.6845775,28.426853 C69.6845775,27.4024322 69.4532567,26.5570096 68.990615,25.8905852 C68.5310199,25.2208073 67.7637259,24.8290769 66.951687,24.8496415 C66.3764161,24.8495805 65.8197193,25.0532929 65.3803576,25.424639 C64.9110583,25.8078639 64.5859514,26.3392214 64.4583788,26.931529 C64.3955503,27.1640383 64.3595166,27.4029697 64.3509798,27.6436668 L64.3509798,29.4017052 C64.3318981,30.1145386 64.5833761,30.8081692 65.0548561,31.3431479 C65.5169717,31.8671498 66.1889575,32.1573943 66.8872476,32.1345957 C67.7021698,32.1667893 68.4776368,31.78279 68.9460031,31.1151317 C69.438386,30.4365906 69.6845775,29.5404977 69.6845775,28.426853 Z M84.1900466,28.3409339 C84.1900466,30.1331196 83.7031713,31.5491336 82.7294207,32.5889759 C81.8957969,33.4968948 80.7116497,34.0019784 79.4793629,33.9752487 C78.0848287,33.9752487 77.0818876,33.4795612 76.4705396,32.4881861 L76.4705396,38.0151019 L74.1259377,38.0151019 L74.1259377,26.6655101 C74.1259377,25.5408502 74.097298,24.3842459 74.0400185,23.1956974 L76.1086877,23.1956974 L76.2392188,24.8645121 L76.2739169,24.8645121 C77.0526971,23.6065673 78.237941,22.9775949 79.8296487,22.9775949 C81.0387127,22.9619531 82.1871372,23.5059758 82.940914,24.4514391 C83.7681614,25.436205 84.1834374,26.7299494 84.186742,28.3326724 L84.1900466,28.3409339 Z M81.8041373,28.426853 C81.8041373,27.4024322 81.5722657,26.5570096 81.1085225,25.8905852 C80.6506084,25.2206276 79.884126,24.8286764 79.0728991,24.8496415 C78.4966436,24.849656 77.9389311,25.0533118 77.4982651,25.424639 C77.0289758,25.8075936 76.7043296,26.3391507 76.5779386,26.931529 C76.5143807,27.163937 76.4777894,27.4028893 76.4688873,27.6436668 L76.4688873,29.4017052 C76.4504635,30.1144319 76.701857,30.8078295 77.1727636,31.3431479 C77.6356708,31.8670263 78.3080793,32.1571918 79.0068074,32.1345957 C79.8217956,32.1670988 80.5974028,31.78303 81.0655629,31.1151317 C81.5579459,30.4365906 81.8041373,29.5404977 81.8041373,28.426853 Z M97.7421434,29.6396352 C97.7421434,30.8838108 97.3059383,31.8950134 96.4417898,32.6765474 C95.4922728,33.5280284 94.1654825,33.9543196 92.461419,33.9554212 C90.8884373,33.9554212 89.6271879,33.6519503 88.6776709,33.0450084 L89.2179703,31.0936519 C90.2410721,31.7005225 91.4107054,32.0159292 92.6002115,32.0057169 C93.4814337,32.0057169 94.1682363,31.8068912 94.6606193,31.4092396 C95.1456754,31.0256311 95.4197783,30.4345009 95.3991937,29.8164304 C95.41105,29.2555293 95.1910774,28.714564 94.7911503,28.3211064 C94.3846866,27.9162949 93.7155084,27.5395724 92.7737021,27.1942434 C90.2159545,26.2414219 88.93653,24.8463369 88.9354284,23.0089885 C88.9084337,21.8700854 89.4083696,20.7824201 90.2903077,20.0613 C91.1924589,19.2902305 92.3887182,18.9046958 93.8790853,18.9046958 C95.2097309,18.9046958 96.3156648,19.1360167 97.1968871,19.5986583 L96.6086712,21.5070553 C95.7440659,21.049604 94.777803,20.8182693 93.7997753,20.8345726 C92.9736294,20.8345726 92.3259311,21.0378044 91.8616371,21.4426159 C91.4828642,21.7767198 91.2686654,22.2594214 91.2750735,22.7644493 C91.2649468,23.3199449 91.5134179,23.8486327 91.9475563,24.1953339 C92.3374971,24.5412137 93.0457795,24.9168346 94.0724034,25.3221969 C95.3292467,25.8300012 96.2539793,26.4220724 96.8466012,27.0984105 C97.4430785,27.7758501 97.7388388,28.6234758 97.7388388,29.6313737 L97.7421434,29.6396352 Z M105.507914,24.960345 L102.922078,24.960345 L102.922078,30.0824494 C102.922078,31.3822522 103.377009,32.0321536 104.286871,32.0321536 C104.637063,32.0398552 104.986822,32.0032138 105.327815,31.9231023 L105.392254,33.7009682 C104.805909,33.8914798 104.190928,33.9786953 103.574733,33.9587258 C102.64945,33.9587258 101.926297,33.6767346 101.405274,33.1127524 C100.884251,32.5487701 100.624291,31.602007 100.625392,30.2724629 L100.625392,24.9553881 L99.0871088,24.9553881 L99.0871088,23.199002 L100.625392,23.199002 L100.625392,21.2707776 L102.925383,20.576815 L102.925383,23.199002 L105.50461,23.199002 L105.50461,24.960345 L105.507914,24.960345 Z M117.130134,28.3838935 C117.130134,30.0031394 116.667493,31.3326834 115.742209,32.3725257 C114.765154,33.4410077 113.476367,33.9752487 111.875847,33.9752487 C110.327099,33.9752487 109.094489,33.4630382 108.178018,32.4386174 C107.261547,31.4141965 106.80276,30.1210028 106.801659,28.5590364 C106.801659,26.9265722 107.274765,25.5898681 108.220977,24.5489244 C109.16719,23.5079806 110.44331,22.9875087 112.049337,22.9875087 C113.591476,22.9875087 114.834,23.5008206 115.776908,24.5274446 C116.675754,25.5188196 117.124627,26.8037518 117.123525,28.3822412 L117.130134,28.3838935 Z M114.702918,28.4384191 C114.725254,27.5702841 114.508018,26.712772 114.075047,25.9599815 C113.583766,25.1239219 112.882643,24.7058921 111.97168,24.7058921 C111.033178,24.7058921 110.319388,25.1239219 109.8237,25.9599815 C109.385657,26.7293745 109.168395,27.6047136 109.19583,28.4896401 C109.172893,29.357842 109.39017,30.2155142 109.8237,30.9680777 C110.330954,31.8057896 111.036483,32.2238194 111.951852,32.2238194 C112.867222,32.2238194 113.547966,31.7958759 114.05522,30.9482502 C114.500669,30.1882953 114.724996,29.3190261 114.702918,28.4384191 Z M124.743895,25.2627144 C124.500201,25.2184526 124.253001,25.1963318 124.00532,25.1966227 C123.180276,25.1966227 122.544144,25.5078043 122.096923,26.1301675 C121.706983,26.6809315 121.512012,27.3743432 121.512012,28.2104028 L121.512012,33.738971 L119.164106,33.738971 L119.164106,26.5217607 C119.164106,25.4202329 119.141524,24.3142989 119.096362,23.2039589 L121.13529,23.2039589 L121.216252,25.2181025 L121.280691,25.2181025 C121.502728,24.5608273 121.909442,23.9814464 122.452166,23.5492879 C122.940387,23.18327 123.533926,22.985037 124.144113,22.9842041 C124.339916,22.9829175 124.53551,22.9972831 124.729024,23.0271637 L124.729024,25.2610621 L124.743895,25.2627144 Z M135.214467,27.9724728 C135.219746,28.3285427 135.190975,28.6843019 135.128548,29.0348964 L128.098047,29.0348964 C128.124484,30.0758402 128.464305,30.8711433 129.117511,31.4208057 C129.709031,31.909884 130.474593,32.1549739 131.414196,32.1560755 C132.384202,32.1703839 133.348253,32.0022354 134.256138,31.660388 L134.622947,33.2845907 C133.631572,33.7196942 132.454039,33.9366952 131.090347,33.9355937 C129.45568,33.9355937 128.1724,33.4553275 127.240508,32.4947953 C126.308615,31.534263 125.842669,30.2443739 125.842669,28.6251281 C125.842669,27.0367249 126.276671,25.7148916 127.144675,24.6596279 C128.053435,23.5327649 129.281639,22.9693335 130.829285,22.9693335 C132.348292,22.9693335 133.498287,23.5327649 134.27927,24.6596279 C134.897227,25.5518654 135.207858,26.6589009 135.207858,27.9642114 L135.214467,27.9724728 Z M132.975612,27.3660818 C133.007521,26.7341356 132.848628,26.1072001 132.51958,25.5667361 C132.114768,24.9058194 131.491854,24.5885794 130.655795,24.5885794 C129.913008,24.5764208 129.213413,24.9367617 128.79201,25.5485609 C128.393582,26.0765068 128.153476,26.7068552 128.099699,27.3660818 L132.975612,27.3660818 Z" id="Shape" fill="#F9F7F5"></path>
                    <path d="M50.6600905,15.2861769 C50.0977038,15.2887489 49.5356087,15.260065 48.9764053,15.2002578 L48.9764053,8.13671062 C49.6324432,8.03542671 50.2953461,7.98515657 50.9591553,7.98635207 C53.6441294,7.98635207 54.8800436,9.30818545 54.8800436,11.4561647 C54.8800436,13.944516 53.4243746,15.2861769 50.6600905,15.2861769 Z M51.053336,8.89346023 C50.7426577,8.88749287 50.4321549,8.91239951 50.1264003,8.96781336 L50.1264003,14.3377615 C50.3848988,14.3644839 50.6448187,14.3749689 50.9046297,14.369155 C52.6626681,14.369155 53.6639569,13.3678662 53.6639569,11.4925151 C53.6639569,9.82039589 52.7634579,8.89346023 51.053336,8.89346023 Z M58.7331879,15.337398 C57.2196887,15.337398 56.2398797,14.2088827 56.2398797,12.6739037 C56.2398797,11.0761376 57.2411685,9.93605631 58.8191071,9.93605631 C60.3061697,9.93605631 61.3140676,11.0116982 61.3140676,12.5896368 C61.3140676,14.2088827 60.279733,15.337398 58.7331879,15.337398 Z M58.7777998,10.7770728 C57.9516539,10.7770728 57.4130068,11.5553022 57.4130068,12.6408579 C57.4130068,13.7264135 57.9566108,14.4848154 58.7662338,14.4848154 C59.5758567,14.4848154 60.1194607,13.6586696 60.1194607,12.6193781 C60.1194607,11.5800866 59.5874228,10.7770728 58.7777998,10.7770728 Z M69.9472919,10.0451076 L68.328046,15.2217375 L67.2722316,15.2217375 L66.6014011,12.9729685 C66.4343137,12.423025 66.2953412,11.8649291 66.1850236,11.3008493 L66.1635438,11.3008493 C66.0686798,11.8680937 65.9300234,12.4271386 65.7488186,12.9729685 L65.0350286,15.2217375 L63.9676481,15.2217375 L62.4442352,10.0451076 L63.627276,10.0451076 L64.2138396,12.5053699 C64.3515306,13.0913827 64.4682925,13.6454512 64.5641254,14.1675754 L64.5872575,14.1675754 C64.7010194,13.6100421 64.8427447,13.0585818 65.0118965,12.5152837 L65.7488186,10.0368461 L66.685668,10.0368461 L67.3895443,12.4558012 C67.5547735,13.0423648 67.6985229,13.6124054 67.8059218,14.1609663 L67.8373154,14.1609663 C67.9209908,13.5862799 68.0379494,13.0169343 68.1876012,12.4558012 L68.8171244,10.0368461 L69.9472919,10.0451076 Z M75.9104127,15.2217375 L74.7538085,15.2217375 L74.7538085,12.2476124 C74.7538085,11.3322428 74.4018704,10.8729057 73.7095602,10.8729057 C73.0172499,10.8729057 72.5529559,11.4594693 72.5529559,12.1402135 L72.5529559,15.2200853 L71.3963517,15.2200853 L71.3963517,11.5239087 C71.3963517,11.0662239 71.3847857,10.5754932 71.3533922,10.0368461 L72.3645947,10.0368461 L72.4191203,10.8365553 L72.4505139,10.8365553 C72.7951838,10.2612174 73.4223953,9.91543072 74.0928918,9.93109943 C75.1800998,9.93109943 75.8938898,10.7572453 75.8938898,12.1154291 L75.8938898,15.2151284 L75.9104127,15.2217375 Z M79.0844652,15.2217375 L77.9278609,15.2217375 L77.9278609,7.66911206 L79.0844652,7.66911206 L79.0844652,15.2217375 Z M83.2812861,15.3390503 C81.7677869,15.3390503 80.7863256,14.210535 80.7863256,12.675556 C80.7863256,11.0777899 81.7876144,9.9377086 83.365553,9.9377086 C84.8526156,9.9377086 85.8588612,11.0133505 85.8588612,12.5912891 C85.8588612,14.210535 84.8261789,15.3390503 83.2812861,15.3390503 Z M83.3225934,10.7787251 C82.4964476,10.7787251 81.9594528,11.5569545 81.9594528,12.6425102 C81.9594528,13.7280658 82.504709,14.4864677 83.3110274,14.4864677 C84.1173458,14.4864677 84.6642543,13.6603219 84.6642543,12.6210304 C84.6642543,11.5817389 84.1338687,10.7787251 83.3225934,10.7787251 Z M90.3960543,15.2217375 L90.3134397,14.6252602 L90.2704802,14.6252602 C89.9201943,15.1060771 89.4063316,15.3390503 88.7569809,15.3390503 C87.828393,15.3390503 87.1691286,14.6896996 87.1691286,13.8156373 C87.1691286,12.5384158 88.2778163,11.8774991 90.196127,11.8774991 L90.196127,11.7816662 C90.196127,11.0992697 89.8342751,10.7588976 89.1204851,10.7588976 C88.6419198,10.749853 88.1714683,10.8832818 87.7689105,11.1422293 L87.5342851,10.3854797 C88.0731538,10.0723632 88.6892541,9.91719297 89.312151,9.9377086 C90.6653779,9.9377086 91.3477744,10.6514986 91.3477744,12.0856878 L91.3477744,13.9874756 C91.3400901,14.4007598 91.3649513,14.8140077 91.4221275,15.2233898 L90.3960543,15.2217375 Z M90.2308252,12.6425102 C88.9519514,12.6425102 88.3108622,12.953141 88.3108622,13.6867585 C88.3108622,14.2303625 88.6413205,14.4963815 89.1006576,14.4963815 C89.6855689,14.4963815 90.2308252,14.0502627 90.2308252,13.4422194 L90.2308252,12.6425102 Z M96.9407819,15.2217375 L96.8862562,14.3955917 L96.8548627,14.3955917 C96.5244043,15.0234625 95.967582,15.3440071 95.1910049,15.3440071 C93.9435247,15.3440071 93.0182413,14.2468854 93.0182413,12.7003404 C93.0182413,11.0810945 93.9765705,9.94101319 95.2868378,9.94101319 C95.9791481,9.94101319 96.4698787,10.1739863 96.7474637,10.6432372 L96.7705958,10.6432372 L96.7705958,7.66911206 L97.9272,7.66911206 L97.9272,13.8272033 C97.9272,14.3228908 97.9387661,14.7954463 97.9701596,15.2217375 L96.9407819,15.2217375 Z M96.7755527,12.1749116 C96.7755527,11.4512078 96.2947358,10.8332507 95.5627706,10.8332507 C94.7085357,10.8332507 94.1880638,11.5900003 94.1880638,12.6507716 C94.1880638,13.7115429 94.7283632,14.4104623 95.5396385,14.4104623 C96.2633423,14.4104623 96.7755527,13.7809392 96.7755527,13.0357556 L96.7755527,12.171607 L96.7755527,12.1749116 Z M105.230329,15.3390503 C103.718483,15.3390503 102.738674,14.210535 102.738674,12.675556 C102.738674,11.0777899 103.739962,9.9377086 105.316249,9.9377086 C106.803311,9.9377086 107.809557,11.0133505 107.809557,12.5912891 C107.809557,14.210535 106.778527,15.3390503 105.230329,15.3390503 Z M105.273289,10.7787251 C104.447143,10.7787251 103.910148,11.5569545 103.910148,12.6425102 C103.910148,13.7280658 104.453752,14.4864677 105.261723,14.4864677 C106.069694,14.4864677 106.61495,13.6603219 106.61495,12.6210304 C106.61495,11.5817389 106.084564,10.7787251 105.273289,10.7787251 Z M113.999042,15.2217375 L112.842437,15.2217375 L112.842437,12.2476124 C112.842437,11.3322428 112.490499,10.8729057 111.798189,10.8729057 C111.105879,10.8729057 110.641585,11.4594693 110.641585,12.1402135 L110.641585,15.2200853 L109.484981,15.2200853 L109.484981,11.5239087 C109.484981,11.0662239 109.473415,10.5754932 109.442021,10.0368461 L110.454876,10.0368461 L110.507749,10.8365553 L110.540795,10.8365553 C110.884172,10.2607048 111.511267,9.91463419 112.181521,9.93109943 C113.268729,9.93109943 113.982519,10.7572453 113.982519,12.1137768 L113.999042,15.2217375 Z M121.743333,10.9076038 L120.474373,10.9076038 L120.474373,13.4223919 C120.474373,14.0623795 120.697983,14.3818226 121.145203,14.3807211 C121.31683,14.3822293 121.488086,14.3644941 121.655762,14.3278477 L121.687155,15.20191 C121.399475,15.2961879 121.097483,15.3392498 120.794918,15.3291365 C119.887809,15.3291365 119.344205,14.833449 119.344205,13.5116156 L119.344205,10.9009947 L118.589108,10.9009947 L118.589108,10.0384984 L119.350815,10.0384984 L119.350815,9.09669211 L120.474373,8.74971085 L120.474373,10.0384984 L121.741681,10.0384984 L121.741681,10.902647 L121.743333,10.9076038 Z M127.835333,15.2217375 L126.678728,15.2217375 L126.678728,12.2707445 C126.678728,11.3438089 126.328443,10.8762103 125.63448,10.8762103 C125.038003,10.8762103 124.477876,11.2810218 124.477876,12.1005585 L124.477876,15.2217375 L123.321272,15.2217375 L123.321272,7.66911206 L124.477876,7.66911206 L124.477876,10.7787251 L124.501008,10.7787251 C124.828957,10.2369079 125.424533,9.91509445 126.057467,9.9377086 C127.154588,9.9377086 127.823767,10.7886388 127.823767,12.1418658 L127.823767,15.2217375 L127.835333,15.2217375 Z M134.077691,12.9085291 L130.624401,12.9085291 C130.645881,13.8883381 131.295231,14.4418559 132.255213,14.4418559 C132.731631,14.4462117 133.204822,14.3633331 133.651399,14.1973167 L133.829847,14.9970259 C133.279155,15.2218575 132.687932,15.3304266 132.093288,15.3159182 C130.47239,15.3159182 129.514061,14.2931496 129.514061,12.7069495 C129.514061,11.1207495 130.495522,9.92614256 131.962757,9.92614256 C133.284591,9.92614256 134.110737,10.9059516 134.110737,12.3864049 C134.117323,12.5613863 134.104019,12.7365496 134.071082,12.9085291 L134.077691,12.9085291 Z M133.021876,12.0823833 C133.021876,11.2826741 132.618717,10.7175903 131.883447,10.7175903 C131.222531,10.7175903 130.698754,11.2925878 130.624401,12.0823833 L133.021876,12.0823833 Z" id="Shape" fill="#F9F7F5"></path>
                </g>
            </g>
        </g>
    </g>
</svg>