
<svg width="150px" height="40px" viewBox="0 0 150 40" version="1.1" xmlns="http://www.w3.org/2000/svg" xmlns:xlink="http://www.w3.org/1999/xlink">
    <g id="PROTOTYPE" stroke="none" stroke-width="1" fill="none" fill-rule="evenodd">
        <g id="Etter-tilbakemeldinger" transform="translate(-651.000000, -3588.000000)" fill="#F9F9F9" fill-rule="nonzero">
            <g id="Group" transform="translate(651.000000, 3588.000000)">
                <path d="M24.2164081,19.1466164 C24.1764748,14.6004364 27.9028845,12.387863 28.0731265,12.2838168 C25.9713726,9.17517241 22.6926365,8.75049421 21.5429772,8.71864335 C18.793883,8.42561539 16.1288591,10.3791351 14.729091,10.3791351 C13.3293229,10.3791351 11.1456006,8.74624743 8.82316253,8.79296203 C5.83446848,8.83967663 3.03703404,10.5893508 1.50275369,13.3030445 C-1.66248769,18.8387247 0.6998837,26.9713122 3.73061283,31.445297 C5.24807915,33.6387598 7.02195944,36.0827829 9.34229575,35.9978472 C11.61219,35.904418 12.4591968,34.5369542 15.1977821,34.5369542 C17.9363675,34.5369542 18.7098129,35.9978472 21.082693,35.9426391 C23.5186258,35.904418 25.0508044,33.7406826 26.5157269,31.5302326 C27.6062736,29.9700948 28.4447969,28.2449646 29,26.4192305 C28.9453544,26.3979966 24.2710537,24.5952377 24.2227134,19.1466164 L24.2164081,19.1466164 Z M19.7459776,5.76925328 C20.9670966,4.22767143 21.8035946,2.12976115 21.5703,0 C19.8048267,0.0806888571 17.5937816,1.23581355 16.3159152,2.74342114 C15.1893751,4.07266389 14.1847367,6.25126303 14.4432525,8.30033533 C16.4294099,8.44897269 18.4660094,7.28747783 19.7396723,5.76925328 L19.7459776,5.76925328 Z" id="Shape"></path>
                <path d="M56.3585812,34.6281663 L53.2527211,34.6281663 L51.5537539,29.2335091 L45.6423353,29.2335091 L44.0215288,34.6281663 L41,34.6281663 L46.8579402,16.2801072 L50.4739018,16.2801072 L56.3585812,34.6281663 Z M51.0395386,26.9781274 L49.5030634,22.1872569 C49.3398858,21.697588 49.0340991,20.5453445 48.5857034,18.7305265 L48.5301682,18.7305265 C48.3491644,19.5106769 48.0612039,20.6629204 47.6662866,22.1872569 L46.1544937,26.9781274 L51.0395386,26.9781274 Z M71.3921784,27.8495721 C71.3921784,30.1001124 70.78609,31.8782744 69.5739132,33.1840581 C68.5374972,34.3250724 67.063906,34.9601961 65.5301245,34.9269474 C63.7941338,34.9269474 62.5456191,34.3044869 61.7845806,33.059566 L61.7845806,40 L58.8700085,40 L58.8700085,25.7456557 C58.8700085,24.3333622 58.8343563,22.8809544 58.7630517,21.3884326 L61.3259006,21.3884326 L61.4883926,23.4840495 L61.5439278,23.4840495 C62.5147662,21.9043832 63.9902212,21.11455 65.9702927,21.11455 C67.4758554,21.0980696 68.9042683,21.785206 69.8392483,22.9757068 C70.8690501,24.2123282 71.3853222,25.8369499 71.3880647,27.8495721 L71.3921784,27.8495721 Z M68.4241279,27.9574652 C68.4241279,26.6710469 68.1361674,25.6094061 67.5602463,24.7725426 C66.9881179,23.9314677 66.0329493,23.4395517 65.0220798,23.4653756 C64.3059518,23.4652991 63.6129459,23.7211113 63.066005,24.1874298 C62.4817962,24.6686651 62.0770858,25.3359181 61.9182765,26.0797095 C61.8400643,26.3716834 61.7952076,26.6717219 61.7845806,26.9739777 L61.7845806,29.1816374 C61.7608267,30.0767792 62.0738799,30.947807 62.6608034,31.6196075 C63.2360696,32.2776237 64.0725934,32.6420988 64.9418622,32.6134694 C65.9563209,32.6538966 66.9216637,32.1716888 67.5047111,31.3332757 C68.1176556,30.4811965 68.4241279,29.3559263 68.4241279,27.9574652 Z M86.4813108,27.8495721 C86.4813108,30.1001124 85.8752224,31.8782744 84.6630457,33.1840581 C83.6253062,34.3241788 82.1512166,34.9584384 80.6172,34.9248725 C78.8812093,34.9248725 77.6326947,34.302412 76.8716561,33.0574911 L76.8716561,39.9979251 L73.9529703,39.9979251 L73.9529703,25.7456557 C73.9529703,24.3333622 73.9173181,22.8809544 73.8460136,21.3884326 L76.4212036,21.3884326 L76.5836956,23.4840495 L76.6268897,23.4840495 C77.5963568,21.9043832 79.0718118,21.11455 81.0532546,21.11455 C82.558362,21.0949078 83.9879822,21.7780652 84.9263239,22.9653324 C85.9561256,24.2019538 86.4730834,25.8265756 86.4771971,27.8391977 L86.4813108,27.8495721 Z M83.5112035,27.9574652 C83.5112035,26.6710469 83.2225573,25.6094061 82.645265,24.7725426 C82.0752291,23.9312421 81.1210708,23.4390487 80.1112122,23.4653756 C79.3938586,23.4653939 78.6995882,23.721135 78.1510237,24.1874298 C77.5668273,24.6683257 77.1626904,25.3358295 77.0053521,26.0797095 C76.9262319,26.3715562 76.8806811,26.6716209 76.8695993,26.9739777 L76.8695993,29.1816374 C76.8466643,30.0766453 77.1596123,30.9473804 77.7458221,31.6196075 C78.3220736,32.2774686 79.1591237,32.6418444 80.0289378,32.6134694 C81.0434786,32.6542852 82.0089958,32.1719902 82.5917866,31.3332757 C83.2047312,30.4811965 83.5112035,29.3559263 83.5112035,27.9574652 Z M103.351685,29.4804184 C103.351685,31.0427942 102.808674,32.3126135 101.732935,33.2940261 C100.550926,34.3632748 98.8992664,34.8985908 96.7779571,34.8999741 C94.8198254,34.8999741 93.2497548,34.5188899 92.0677453,33.7567217 L92.7403389,31.3063024 C94.0139506,32.0683812 95.4699726,32.4644537 96.9507334,32.4516296 C98.0477259,32.4516296 98.9026945,32.2019538 99.5156391,31.7026022 C100.119463,31.2208852 100.460681,30.4785725 100.435056,29.7024293 C100.449815,28.9980769 100.175982,28.3187588 99.6781311,27.8246736 C99.1721433,27.3163309 98.3391146,26.843261 97.1667038,26.4096136 C93.9826829,25.2131063 92.3899869,23.4612259 92.3886156,21.1539725 C92.3550112,19.7237931 92.9773581,18.3579554 94.0752417,17.4524077 C95.1982878,16.4841359 96.6874552,16 98.5427438,16 C100.199203,16 101.575928,16.2904815 102.672921,16.8714446 L101.940678,19.2679174 C100.864371,18.6934722 99.6615157,18.4029732 98.4440145,18.423446 C97.415584,18.423446 96.6092944,18.6786548 96.0313165,19.1869975 C95.5597998,19.606549 95.2931537,20.2127024 95.3011308,20.846892 C95.2885246,21.5444566 95.5978346,22.2083572 96.1382733,22.6437278 C96.6236925,23.0780669 97.5054002,23.5497536 98.7833965,24.0587879 C100.347982,24.6964641 101.499139,25.4399585 102.236866,26.2892712 C102.979393,27.1399671 103.347571,28.2043745 103.347571,29.4700441 L103.351685,29.4804184 Z M113.018932,23.6043918 L109.799944,23.6043918 L109.799944,30.0364831 C109.799944,31.6687127 110.366267,32.4848275 111.498911,32.4848275 C111.934849,32.4944989 112.370248,32.4484863 112.794734,32.3478862 L112.874951,34.5804444 C112.145038,34.8196796 111.379477,34.9292006 110.612404,34.9041238 C109.460562,34.9041238 108.560343,34.550013 107.911746,33.8417913 C107.263149,33.1335696 106.939536,31.9446702 106.940907,30.2750929 L106.940907,23.5981672 L105.02597,23.5981672 L105.02597,21.3925823 L106.940907,21.3925823 L106.940907,18.9712112 L109.804058,18.0997666 L109.804058,21.3925823 L113.014818,21.3925823 L113.014818,23.6043918 L113.018932,23.6043918 Z M127.486892,27.9035186 C127.486892,29.9368894 126.910971,31.6064667 125.759129,32.9122504 C124.542838,34.2539984 122.938487,34.9248725 120.946074,34.9248725 C119.01811,34.9248725 117.483691,34.2816634 116.342819,32.9952451 C115.201947,31.7088268 114.630825,30.0848967 114.629454,28.1234547 C114.629454,26.0734849 115.218402,24.3949166 116.396297,23.0877496 C117.574193,21.7805827 119.162775,21.1269992 121.162044,21.1269992 C123.081781,21.1269992 124.628541,21.7715916 125.802323,23.0607763 C126.921255,24.3056972 127.480036,25.919253 127.478665,27.9014438 L127.486892,27.9035186 Z M124.465363,27.9719893 C124.493169,26.8818273 124.222741,25.805005 123.683756,24.859687 C123.072183,23.8098038 122.199388,23.2848621 121.065372,23.2848621 C119.897075,23.2848621 119.008511,23.8098038 118.391453,24.859687 C117.846153,25.8258537 117.575693,26.9250621 117.609845,28.0363102 C117.581293,29.1265562 117.851771,30.2035794 118.391453,31.1486124 C119.022909,32.2005706 119.901189,32.7255122 121.04069,32.7255122 C122.180191,32.7255122 123.027617,32.1881214 123.659074,31.123714 C124.213592,30.1693993 124.492847,29.0778131 124.465363,27.9719893 Z M136.964908,23.9840927 C136.661544,23.9285108 136.353817,23.9007327 136.045491,23.901098 C135.018431,23.901098 134.22654,24.2918648 133.669816,25.0733985 C133.184397,25.7650212 132.941687,26.6357742 132.941687,27.6856575 L132.941687,34.6281663 L130.018888,34.6281663 L130.018888,25.5651422 C130.018888,24.1818968 129.990778,22.7931184 129.934557,21.398807 L132.472723,21.398807 L132.573509,23.9280712 L132.653727,23.9280712 C132.93013,23.1026968 133.436429,22.3751382 134.112041,21.8324544 C134.719804,21.3728269 135.458674,21.1238954 136.218267,21.1228495 C136.462014,21.1212338 136.705499,21.1392734 136.946396,21.1767961 L136.946396,23.9820178 L136.964908,23.9840927 Z M149.999236,27.3868765 C150.005806,27.8340118 149.969991,28.280757 149.892279,28.7210167 L141.140335,28.7210167 C141.173245,30.0281836 141.596273,31.0268868 142.409419,31.7171263 C143.145775,32.3312873 144.098787,32.6390594 145.268456,32.6404426 C146.47597,32.6584105 147.676073,32.4472577 148.806256,32.0179822 L149.26288,34.0575776 C148.028763,34.6039595 146.562907,34.8764589 144.865311,34.8750756 C142.83039,34.8750756 141.232894,34.2719806 140.072825,33.0657906 C138.912755,31.8596006 138.33272,30.2398202 138.33272,28.2064494 C138.33272,26.2118095 138.872989,24.5519149 139.953527,23.2267658 C141.0848,21.8117057 142.613734,21.1041757 144.540327,21.1041757 C146.431268,21.1041757 147.862843,21.8117057 148.835053,23.2267658 C149.604319,24.3471946 149.991008,25.7373563 149.991008,27.3765021 L149.999236,27.3868765 Z M147.212189,26.6253998 C147.25191,25.8318324 147.054112,25.0445571 146.644496,24.3658684 C146.140565,23.5359212 145.365128,23.1375465 144.324356,23.1375465 C143.399696,23.1222783 142.528803,23.5747771 142.004217,24.3430449 C141.508233,25.0060138 141.209337,25.797575 141.142392,26.6253998 L147.212189,26.6253998 Z" id="Shape"></path>
                <path d="M45.0963013,10.9246502 C44.396092,10.9280014 43.6962459,10.8906276 43,10.8127018 L43,1.60925727 C43.8168112,1.47728946 44.64217,1.41179001 45.468657,1.41334769 C48.8116301,1.41334769 50.3504264,3.13562971 50.3504264,5.934338 C50.3504264,9.17653391 48.5380206,10.9246502 45.0963013,10.9246502 Z M45.5859183,2.59526372 C45.199103,2.58748855 44.8125061,2.61994065 44.4318211,2.69214209 L44.4318211,9.68891281 C44.7536691,9.72373072 45.0772868,9.73739227 45.400769,9.72981701 C47.5896449,9.72981701 48.8363167,8.42518837 48.8363167,5.98170075 C48.8363167,3.80301399 47.715135,2.59526372 45.5859183,2.59526372 Z M55.1478499,10.9913886 C53.2634417,10.9913886 52.0435137,9.52099031 52.0435137,7.52099031 C52.0435137,5.43918192 53.2901855,3.95371367 55.254825,3.95371367 C57.1063178,3.95371367 58.3612185,5.35522067 58.3612185,7.41119483 C58.3612185,9.52099031 57.0734024,10.9913886 55.1478499,10.9913886 Z M55.2033947,5.04951561 C54.1747876,5.04951561 53.5041357,6.06350915 53.5041357,7.47793326 C53.5041357,8.89235737 54.1809592,9.88051668 55.1889942,9.88051668 C56.1970291,9.88051668 56.8738526,8.80409042 56.8738526,7.44994618 C56.8738526,6.09580194 56.2114296,5.04951561 55.2033947,5.04951561 Z M69.1101627,4.09580194 L67.0940928,10.8406889 L65.7795329,10.8406889 L64.9443039,7.91065662 C64.7362689,7.19410804 64.5632388,6.46693739 64.425886,5.73196986 L64.3991422,5.73196986 C64.2810301,6.47106067 64.1083936,7.19946792 63.8827814,7.91065662 L62.9940649,10.8406889 L61.6651045,10.8406889 L59.768353,4.09580194 L61.2413184,4.09580194 L61.9716294,7.30139935 C62.1430639,8.06494438 62.2884404,8.7868676 62.4077588,9.467169 L62.4365598,9.467169 C62.578201,8.74073123 62.7546585,8.02220646 62.9652639,7.31431647 L63.8827814,4.08503767 L65.0492219,4.08503767 L65.9255951,7.23681378 C66.1313165,8.00107643 66.3102942,8.74381055 66.4440131,9.45855759 L66.4831002,9.45855759 C66.5872817,8.70977034 66.732903,7.96794177 66.9192296,7.23681378 L67.7030282,4.08503767 L69.1101627,4.09580194 Z M76.5346488,10.8406889 L75.0945988,10.8406889 L75.0945988,6.96555436 C75.0945988,5.77287406 74.6564122,5.17438105 73.7944395,5.17438105 C72.9324667,5.17438105 72.3543895,5.9386437 72.3543895,6.82561895 L72.3543895,10.8385361 L70.9143396,10.8385361 L70.9143396,6.02260495 C70.9143396,5.4262648 70.8999391,4.7868676 70.860852,4.08503767 L72.1198671,4.08503767 L72.1877552,5.1270183 L72.2268422,5.1270183 C72.6559794,4.37738209 73.4369,3.92683958 74.2717132,3.94725511 C75.6253601,3.94725511 76.5140767,5.02368138 76.5140767,6.79332616 L76.5140767,10.8320775 L76.5346488,10.8406889 Z M80.4865573,10.8406889 L79.0465073,10.8406889 L79.0465073,1 L80.4865573,1 L80.4865573,10.8406889 Z M85.7118814,10.9935414 C83.8274732,10.9935414 82.6054879,9.52314316 82.6054879,7.52314316 C82.6054879,5.44133477 83.8521597,3.95586652 85.8167993,3.95586652 C87.6682921,3.95586652 88.9211355,5.35737352 88.9211355,7.41334769 C88.9211355,9.52314316 87.6353767,10.9935414 85.7118814,10.9935414 Z M85.7633117,5.05166846 C84.7347046,5.05166846 84.06611,6.065662 84.06611,7.48008611 C84.06611,8.89451023 84.7449907,9.88266954 85.7489112,9.88266954 C86.7528318,9.88266954 87.4337697,8.80624327 87.4337697,7.45209903 C87.4337697,6.09795479 86.7734039,5.05166846 85.7633117,5.05166846 Z M94.5702457,10.8406889 L94.467385,10.0635091 L94.4138975,10.0635091 C93.9777681,10.6899892 93.3379744,10.9935414 92.5294893,10.9935414 C91.3733349,10.9935414 90.5525064,10.1474704 90.5525064,9.00861141 C90.5525064,7.3444564 91.9328971,6.48331539 94.3213228,6.48331539 L94.3213228,6.35844995 C94.3213228,5.46932185 93.8707929,5.02583423 92.9820764,5.02583423 C92.3862304,5.01404962 91.8004866,5.1879006 91.2992752,5.52529602 L91.0071507,4.53928956 C91.6780785,4.13131468 92.4451648,3.9291357 93.2207132,3.95586652 C94.9055717,3.95586652 95.7552011,4.88589882 95.7552011,6.75457481 L95.7552011,9.23250807 C95.7456337,9.77099647 95.7765875,10.3094375 95.8477758,10.8428418 L94.5702457,10.8406889 Z M94.3645243,7.48008611 C92.7722405,7.48008611 91.9740414,7.88482239 91.9740414,8.84068891 C91.9740414,9.5489774 92.3854843,9.89558665 92.9573898,9.89558665 C93.6856436,9.89558665 94.3645243,9.31431647 94.3645243,8.52206674 L94.3645243,7.48008611 Z M102.718871,10.8406889 L102.650983,9.76426265 L102.611896,9.76426265 C102.200453,10.5823466 101.507172,11 100.540281,11 C98.9870847,11 97.8350447,9.57050592 97.8350447,7.55543595 C97.8350447,5.44564047 99.0282289,3.96017223 100.6596,3.96017223 C101.521573,3.96017223 102.132565,4.26372443 102.478177,4.87513455 L102.506978,4.87513455 L102.506978,1 L103.947028,1 L103.947028,9.02368138 C103.947028,9.66953714 103.961429,10.285253 104.000516,10.8406889 L102.718871,10.8406889 Z M102.51315,6.87082885 C102.51315,5.92787944 101.9145,5.12271259 101.003155,5.12271259 C99.9395748,5.12271259 99.2915524,6.10871905 99.2915524,7.49085038 C99.2915524,8.8729817 99.9642614,9.78363832 100.974354,9.78363832 C101.875413,9.78363832 102.51315,8.96340151 102.51315,7.99246502 L102.51315,6.86652314 L102.51315,6.87082885 Z M113.039915,10.9935414 C111.157564,10.9935414 109.937636,9.52314316 109.937636,7.52314316 C109.937636,5.44133477 111.184308,3.95586652 113.14689,3.95586652 C114.998383,3.95586652 116.251226,5.35737352 116.251226,7.41334769 C116.251226,9.52314316 114.967525,10.9935414 113.039915,10.9935414 Z M113.093402,5.05166846 C112.064795,5.05166846 111.396201,6.065662 111.396201,7.48008611 C111.396201,8.89451023 112.073024,9.88266954 113.079002,9.88266954 C114.08498,9.88266954 114.76386,8.80624327 114.76386,7.45209903 C114.76386,6.09795479 114.103495,5.05166846 113.093402,5.05166846 Z M123.957551,10.8406889 L122.517501,10.8406889 L122.517501,6.96555436 C122.517501,5.77287406 122.079314,5.17438105 121.217341,5.17438105 C120.355369,5.17438105 119.777291,5.9386437 119.777291,6.82561895 L119.777291,10.8385361 L118.337241,10.8385361 L118.337241,6.02260495 C118.337241,5.4262648 118.322841,4.7868676 118.283754,4.08503767 L119.544826,4.08503767 L119.610657,5.1270183 L119.651801,5.1270183 C120.079328,4.37671428 120.860104,3.92580174 121.694615,3.94725511 C123.048262,3.94725511 123.936979,5.02368138 123.936979,6.7911733 L123.957551,10.8406889 Z M133.599714,5.21959096 L132.019773,5.21959096 L132.019773,8.49623251 C132.019773,9.33010405 132.298183,9.74632221 132.855002,9.74488698 C133.068689,9.74685207 133.281914,9.72374403 133.490681,9.67599569 L133.529768,10.8148547 C133.171588,10.9376939 132.795587,10.9938014 132.418873,10.9806243 C131.289462,10.9806243 130.612639,10.3347686 130.612639,8.61248654 L130.612639,5.21097955 L129.672492,5.21097955 L129.672492,4.08719053 L130.620868,4.08719053 L130.620868,2.86006459 L132.019773,2.40796555 L132.019773,4.08719053 L133.597656,4.08719053 L133.597656,5.2131324 L133.599714,5.21959096 Z M141.184662,10.8406889 L139.744613,10.8406889 L139.744613,6.99569429 C139.744613,5.78794403 139.308483,5.17868676 138.444453,5.17868676 C137.701799,5.17868676 137.004403,5.70613563 137.004403,6.77395048 L137.004403,10.8406889 L135.564353,10.8406889 L135.564353,1 L137.004403,1 L137.004403,5.05166846 L137.033204,5.05166846 C137.441523,4.3457081 138.183055,3.92640142 138.9711,3.95586652 C140.33709,3.95586652 141.170262,5.06458558 141.170262,6.8277718 L141.170262,10.8406889 L141.184662,10.8406889 Z M148.956818,7.82669537 L144.65724,7.82669537 C144.683984,9.10333692 145.492469,9.82454252 146.68771,9.82454252 C147.280882,9.83021793 147.870038,9.72223137 148.426056,9.50592034 L148.648236,10.547901 C147.962587,10.8408453 147.226474,10.9823052 146.486103,10.9634015 C144.467976,10.9634015 143.274792,9.63078579 143.274792,7.56404736 C143.274792,5.49730893 144.496777,3.94079656 146.323584,3.94079656 C147.969355,3.94079656 148.997962,5.21743811 148.997962,7.14639397 C149.006162,7.37438578 148.989598,7.60261476 148.948589,7.82669537 L148.956818,7.82669537 Z M147.642258,6.75026911 C147.642258,5.70828848 147.140298,4.97201292 146.224837,4.97201292 C145.401952,4.97201292 144.749815,5.7212056 144.65724,6.75026911 L147.642258,6.75026911 Z" id="Shape"></path>
            </g>
        </g>
    </g>
</svg>