
<svg width="256px" height="94px" viewBox="0 0 256 94" version="1.1" xmlns="http://www.w3.org/2000/svg" xmlns:xlink="http://www.w3.org/1999/xlink">
    <g id="PROTOTYPE" stroke="none" stroke-width="1" fill="none" fill-rule="evenodd">
        <g id="Group-10" fill-rule="nonzero">
            <path d="M255.561696,64.8004949 C258.17265,83.1249636 248.267603,81.2671834 248.22616,81.2671834 L238.362556,81.2671834 C239.274318,78.6916244 239.771642,75.904954 239.771642,73.0338391 C239.771642,59.4804878 228.996277,48.5449177 215.73429,48.5449177 C202.513746,48.5449177 191.738381,59.4804878 191.738381,73.0338391 C191.738381,75.904954 192.235705,78.6916244 193.147467,81.2671834 L63.8845312,81.2671834 C64.7962929,78.6916244 65.2936174,75.904954 65.2936174,73.0338391 C65.2936174,59.4804878 54.5596962,48.5449177 41.2977085,48.5449177 C28.0357209,48.5449177 17.3017996,59.4804878 17.3017996,73.0338391 C17.3017996,75.904954 17.7991242,78.6916244 18.7108858,81.2671834 L14.4007398,81.2671834 C-5.45079794,71.1338366 0.848646191,53.3160352 5.28312331,48.7982514 C9.67615672,44.2804676 8.39140167,39.0026829 11.2510178,31.7826733 C14.1520775,24.6471083 32.1386483,8.94042078 32.1386483,8.94042078 C27.2068466,8.1381975 25.0932174,6.28041725 25.0932174,6.28041725 L26.1293101,4.92930435 C44.1573246,7.08264054 67.655909,-1.74181561 113.078217,0.960410199 C158.500524,3.662636 199.488355,29.7137817 199.488355,29.7137817 C199.488355,29.7137817 199.488355,29.7137817 223.981588,35.0337887 C248.516266,40.3537958 252.950743,46.4760261 255.561696,64.8004949 Z M118.686833,24.2249563 C119.183517,27.1061162 121.956671,29.6532286 124.853996,29.8202524 L194.72091,33.7870668 C197.659625,33.9540905 197.990748,32.8266801 195.465936,31.3652222 C195.465936,31.3652222 159.870233,10.1532041 126.551,7.02150852 C122.825868,6.68746099 120.839132,6.52043723 120.839132,6.52043723 C117.900417,6.31165752 115.99646,8.5247224 116.451754,11.4058823 L118.686833,24.2249563 Z M50.6771493,10.8340779 C47.0926951,11.988143 46.8426169,15.1083932 48.7598831,17.4592666 L52.3443373,21.7335818 C54.2616034,24.0417121 58.2211749,26.0506402 61.1387539,26.2216128 L104.068845,28.7434589 C107.028103,28.8716883 109.403846,26.5635581 109.403846,23.5715374 L109.403846,10.8340779 C109.403846,7.8420572 106.986424,5.44844066 104.068845,5.57667011 C104.027165,5.57667011 71.39196,4.42260499 50.6771493,10.8340779 Z" id="Combined-Shape-Copy-3" fill="#72202C"></path>
            <path d="M247.210117,44.0452562 C247.210117,44.0452562 239.153642,46.3052913 240.732549,48.8529672 C242.311456,51.4006431 253.89011,56.0439878 253.89011,54.1537767 C253.89011,52.2635656 251.177628,44.7849041 247.210117,44.0452562 Z" id="Shape-Copy-16" fill="#C1994B"></path>
            <path d="M10.7789701,32.1263597 C11.1274354,31.7645771 13.5666932,34.096065 13.3489024,36.9099298 C13.1311115,39.7639926 12.4777389,44.4269684 7.03296703,44.7485529 C7.03296703,44.7485529 8.33971227,34.699036 10.7789701,32.1263597 Z" id="Shape-Copy-21" fill="#CA4C31"></path>
            <path d="M215.912088,55.7575902 C225.035937,55.7575902 232.408333,63.2942698 232.408333,72.5287727 C232.408333,81.7632757 225.035937,89.2999552 215.912088,89.2999552 C206.82897,89.2999552 199.456574,81.7632757 199.456574,72.5287727 C199.456574,63.2528594 206.82897,55.7575902 215.912088,55.7575902 Z M215.912088,51.0782233 C204.262888,51.0782233 194.813187,60.6440088 194.813187,72.5287727 C194.813187,84.3721263 204.262888,93.9793222 215.912088,93.9793222 C227.561288,93.9793222 237.010989,84.3721263 237.010989,72.5287727 C237.010989,60.6854192 227.561288,51.0782233 215.912088,51.0782233 Z" id="Shape-Copy-22" fill="#88A494"></path>
            <path d="M234.81091,71.562391 L233.773743,66.3163185 C233.593366,65.7180822 233.367895,65.1198458 233.097329,64.5676277 L220.651319,69.8597183 L230.166204,60.1038643 C229.715261,59.6436825 229.264319,59.1835007 228.813377,58.7233189 L224.439235,55.7321373 C223.85301,55.4560282 223.266785,55.1799191 222.68056,54.9498282 L217.539817,67.6968639 L217.539817,53.9374283 C217.224157,53.8914101 216.908497,53.8914101 216.592837,53.8914101 C216.277178,53.8914101 215.961518,53.8914101 215.645858,53.8914101 L210.505115,54.9498282 C209.91889,55.1799191 209.332665,55.41001 208.74644,55.6861191 L213.887183,68.3871366 L204.372298,58.6773007 C203.921356,59.0914644 203.470414,59.5516461 203.019471,60.0578461 L200.088346,64.5216095 C199.81778,65.0738277 199.592309,65.672064 199.411932,66.2703003 L211.857942,71.562391 L198.32967,71.562391 C198.32967,71.8845182 198.32967,72.2066455 198.32967,72.5287727 C198.32967,72.8509 198.32967,73.1270091 198.32967,73.4951545 L199.366838,78.7872451 C199.592309,79.3854814 199.81778,79.9837178 200.088346,80.5359359 L212.534356,75.2438453 L203.019471,84.9536811 C203.425319,85.4598811 203.876262,85.9200629 204.372298,86.3342265 L208.74644,89.3254082 C209.287571,89.5554991 209.873796,89.8316082 210.505115,90.0616991 L215.645858,77.3606816 L215.645858,91.1201172 C215.961518,91.1661354 216.277178,91.1661354 216.592837,91.1661354 C216.908497,91.1661354 217.224157,91.1661354 217.539817,91.1201172 L222.68056,90.0616991 C223.266785,89.8776263 223.85301,89.6015173 224.439235,89.3254082 L219.298492,76.5783725 L228.813377,86.3342265 C229.309413,85.9200629 229.715261,85.4598811 230.166204,84.9536811 L233.097329,80.5359359 C233.367895,79.9837178 233.593366,79.3394633 233.818837,78.7412269 L221.372827,73.4491363 L234.856005,73.4491363 C234.901099,73.1270091 234.901099,72.8048818 234.901099,72.4827545 C234.856005,72.2066455 234.856005,71.8845182 234.81091,71.562391 Z" id="Shape-Copy-23" fill="#88A494"></path>
            <path d="M40.9668814,55.7312539 C50.1905882,55.7312539 57.6436727,63.2255156 57.6436727,72.4080451 C57.6436727,81.5905746 50.1905882,89.0848363 40.9668814,89.0848363 C31.784352,89.0848363 24.3312675,81.5905746 24.3312675,72.4080451 C24.3312675,63.1843384 31.784352,55.7312539 40.9668814,55.7312539 Z M40.9668814,51.0782233 C29.1901844,51.0782233 19.6370596,60.5901709 19.6370596,72.4080451 C19.6370596,84.1847421 29.1901844,93.737867 40.9668814,93.737867 C52.7435785,93.737867 62.2967033,84.1847421 62.2967033,72.4080451 C62.2967033,60.6313481 52.7435785,51.0782233 40.9668814,51.0782233 Z" id="Shape-Copy-17" fill="#88A494"></path>
            <path d="M59.4540231,71.5717198 L58.4071147,66.3762895 C58.2250437,65.7838282 57.9974549,65.1913669 57.7243484,64.6444795 L45.1614481,69.8854837 L54.7656943,60.2238064 C54.3105168,59.7680669 53.8553392,59.3123274 53.4001617,58.8565879 L48.9849395,55.8942812 C48.3932087,55.6208375 47.8014779,55.3473938 47.2097471,55.119524 L42.020723,67.743508 L42.020723,54.1168971 C41.7020987,54.0713232 41.3834745,54.0713232 41.0648502,54.0713232 C40.7462259,54.0713232 40.4276016,54.0713232 40.1089773,54.0713232 L34.9199533,55.119524 C34.3282225,55.3473938 33.7364917,55.5752635 33.1447609,55.8487072 L38.3337849,68.4271173 L28.7295386,58.8110139 C28.2743611,59.2211795 27.8191836,59.676919 27.364006,60.1782324 L24.405352,64.5989055 C24.1322454,65.1457929 23.9046567,65.7382543 23.7225856,66.3307156 L36.2854859,71.5717198 L22.6301595,71.5717198 C22.6301595,71.8907374 22.6301595,72.2097551 22.6301595,72.5287727 C22.6301595,72.8477904 22.6301595,73.1212341 22.6301595,73.4858257 L23.6770679,78.7268298 C23.9046567,79.3192912 24.1322454,79.9117525 24.405352,80.4586399 L36.9682522,75.2176357 L27.364006,84.8337391 C27.7736658,85.3350525 28.2288433,85.790792 28.7295386,86.2009576 L33.1447609,89.1632643 C33.6909739,89.391134 34.2827047,89.6645777 34.9199533,89.8924475 L40.1089773,77.3140374 L40.1089773,90.9406483 C40.4276016,90.9862222 40.7462259,90.9862222 41.0648502,90.9862222 C41.3834745,90.9862222 41.7020987,90.9862222 42.020723,90.9406483 L47.2097471,89.8924475 C47.8014779,89.7101517 48.3932087,89.436708 48.9849395,89.1632643 L43.7959155,76.5392803 L53.4001617,86.2009576 C53.900857,85.790792 54.3105168,85.3350525 54.7656943,84.8337391 L57.7243484,80.4586399 C57.9974549,79.9117525 58.2250437,79.2737172 58.4526325,78.6812559 L45.8897322,73.4402517 L59.4995408,73.4402517 C59.5450586,73.1212341 59.5450586,72.8022164 59.5450586,72.4831988 C59.4995408,72.2097551 59.4995408,71.8907374 59.4540231,71.5717198 Z" id="Shape-Copy-18" fill="#88A494"></path>
        </g>
    </g>
</svg>