
<svg width="257px" height="93px" viewBox="0 0 257 93" version="1.1" xmlns="http://www.w3.org/2000/svg" xmlns:xlink="http://www.w3.org/1999/xlink">
    <!-- Generator: Sketch 51.3 (57544) - http://www.bohemiancoding.com/sketch -->
    <desc>Created with Sketch.</desc>
    <defs></defs>
    <g id="Page-1" stroke="none" stroke-width="1" fill="none" fill-rule="evenodd">
        <g id="forside-copy-17" transform="translate(-376.000000, -574.000000)" fill-rule="nonzero">
            <g id="Group-2" transform="translate(376.000000, 574.000000)">
                <path d="M255.906049,63.5682556 C253.284362,45.4691081 248.831656,39.4221579 224.196124,34.1675667 C199.602206,28.9129755 199.602206,28.9129755 199.602206,28.9129755 C199.602206,28.9129755 158.445886,3.18215979 112.836861,0.513161081 C67.227835,-2.15583763 43.6326548,6.56011128 25.5305324,4.43325293 L24.4901805,5.76775229 C24.4901805,5.76775229 26.6124983,7.6026889 31.5645732,8.39504789 C31.5645732,8.39504789 13.5040649,23.9086029 10.5910797,30.9564276 C7.71970853,38.0876585 9.00974483,43.3005466 4.59865294,47.7627788 C0.145946977,52.2250111 -6.17939234,69.8237213 13.7537493,79.8324665 L18.0816131,79.8324665 C17.1661034,77.2885771 16.6667345,74.5361721 16.6667345,71.700361 C16.6667345,58.3136644 27.4447798,47.5125602 40.7612836,47.5125602 C54.0777875,47.5125602 64.8558327,58.3136644 64.8558327,71.700361 C64.8558327,74.5361721 64.3564639,77.2885771 63.4409542,79.8324665 L193.235252,79.8324665 C192.319743,77.2885771 191.820374,74.5361721 191.820374,71.700361 C191.820374,58.3136644 202.640033,47.5125602 215.914923,47.5125602 C229.231427,47.5125602 240.051086,58.3136644 240.051086,71.700361 C240.051086,74.5361721 239.551717,77.2885771 238.636208,79.8324665 L248.540357,79.8324665 C248.581971,79.8324665 258.527735,81.6674031 255.906049,63.5682556 Z" id="Shape-Copy-7" fill="#6E1F1F"></path>
                <path d="M247.155266,43 C247.155266,43 238.529007,45.2988794 240.21958,47.8903435 C241.910154,50.4818076 254.307692,55.2049598 254.307692,53.2822607 C254.307692,51.3595615 251.403374,43.7523605 247.155266,43 Z" id="Shape-Copy-9" fill="#C1994B"></path>
                <path d="M118.310752,23.8001901 C118.809278,26.6946887 121.592712,29.2535933 124.500777,29.4213903 L194.626695,33.4065696 C197.576304,33.5743667 197.908655,32.4417368 195.374483,30.9735128 C195.374483,30.9735128 159.646824,9.66329093 126.204073,6.51709675 C122.465131,6.18150271 120.47103,6.01370569 120.47103,6.01370569 C117.52142,5.80395941 115.610406,8.02726996 116.067388,10.9217686 L118.310752,23.8001901 Z" id="Shape" fill="#CCCCCC"></path>
                <path d="M50.1115216,10.2007789 C46.5171929,11.3251198 46.2664258,14.3650043 48.1889737,16.6553282 L51.7833024,20.8195536 C53.7058503,23.0682353 57.6763297,25.0254213 60.6019461,25.1919903 L103.650301,27.6488833 C106.617712,27.77381 109,25.5251283 109,22.6101706 L109,10.2007789 C109,7.28582112 106.575918,4.95385491 103.650301,5.07878167 C103.608507,5.07878167 70.8833979,3.95444081 50.1115216,10.2007789 Z" id="Shape" fill="#CCCCCC"></path>
                <path d="M11.5281365,32.0384856 C11.8563353,31.6636701 14.1537265,34.0791482 13.9486023,36.9943805 C13.7434781,39.9512589 13.1281054,44.7822152 8,45.1153846 C8,45.1153846 9.2307453,34.7038408 11.5281365,32.0384856 Z" id="Shape-Copy-11" fill="#CA4C31"></path>
                <g id="Group-16-Copy-3" transform="translate(195.000000, 50.000000)">
                    <path d="M21.4202663,4.82884615 C30.6652367,4.82884615 38.135503,12.3403846 38.135503,21.5440828 C38.135503,30.7477811 30.6652367,38.2593195 21.4202663,38.2593195 C12.216568,38.2593195 4.74630178,30.7477811 4.74630178,21.5440828 C4.74630178,12.2991124 12.216568,4.82884615 21.4202663,4.82884615 Z M21.4202663,0.165088757 C9.61642012,0.165088757 0.0412721893,9.6989645 0.0412721893,21.5440828 C0.0412721893,33.347929 9.61642012,42.9230769 21.4202663,42.9230769 C33.2241124,42.9230769 42.7992604,33.347929 42.7992604,21.5440828 C42.7992604,9.74023669 33.2241124,0.165088757 21.4202663,0.165088757 Z" id="Shape" fill="#000000"></path>
                    <path d="M39.2085799,21.5440828 C39.2085799,31.3255917 31.2430473,39.2911243 21.4615385,39.2911243 C11.6387574,39.2911243 3.71449704,31.3255917 3.71449704,21.5440828 C3.71449704,11.762574 11.6387574,3.79704142 21.4615385,3.79704142 C31.2017751,3.79704142 39.2085799,11.762574 39.2085799,21.5440828 Z" id="Shape" fill="#808080"></path>
                    <path d="M39.9087546,20.5407407 L26.2675709,20.5407407 L38.8594328,15.3333333 C38.676942,14.7395062 38.4488286,14.145679 38.1750925,13.5975309 L25.5832306,18.8506173 L35.2096178,9.16666667 C34.7533909,8.70987654 34.297164,8.25308642 33.8409371,7.7962963 L24.2145499,17.4345679 L29.4155364,4.82716049 C28.8224414,4.55308642 28.2293465,4.27901235 27.6362515,4.05061728 L22.4352651,16.7037037 L22.4352651,3.04567901 C22.1159063,3 21.7965475,3 21.4771887,3 C21.1578298,3 20.838471,3 20.5191122,3 L20.5191122,16.7037037 L15.3181258,4.05061728 C14.7250308,4.27901235 14.1319359,4.50740741 13.5388409,4.78148148 L18.7398274,17.3888889 L9.1134402,7.75061728 C8.65721332,8.1617284 8.20098644,8.61851852 7.74475956,9.12098765 L17.3711467,18.7592593 L4.77928483,13.5518519 C4.50554871,14.1 4.27743527,14.6938272 4.09494451,15.2876543 L16.6868064,20.5407407 L3,20.5407407 C3,20.8604938 3,21.1802469 3,21.5 C3,21.8197531 3,22.0938272 3,22.4592593 L16.6411837,22.4592593 L4.04932182,27.7123457 C4.27743527,28.3061728 4.50554871,28.9 4.77928483,29.4481481 L17.3711467,24.1950617 L7.74475956,33.8333333 C8.15536375,34.3358025 8.61159063,34.7925926 9.1134402,35.2037037 L18.7398274,25.5197531 L13.5388409,38.1728395 C14.0863132,38.4012346 14.6794081,38.6753086 15.3181258,38.9037037 L20.5191122,26.2962963 L20.5191122,39.954321 C20.838471,40 21.1578298,40 21.4771887,40 C21.7965475,40 22.1159063,40 22.4352651,39.954321 L22.4352651,26.2962963 L27.6362515,38.9037037 C28.2293465,38.7209877 28.8224414,38.4469136 29.4155364,38.1728395 L24.2145499,25.5197531 L33.8409371,35.2037037 C34.3427867,34.7925926 34.7533909,34.3358025 35.2096178,33.8333333 L25.5832306,24.1950617 L38.1750925,29.4481481 C38.4488286,28.9 38.676942,28.2604938 38.9050555,27.6666667 L26.3131936,22.4135802 L39.9543773,22.4135802 C40,22.0938272 40,21.7740741 40,21.454321 C39.9543773,21.1802469 39.9543773,20.8604938 39.9087546,20.5407407 Z" id="Shape" fill="#000000"></path>
                    <path d="M22.9473373,21.5440828 C22.9473373,22.3695266 22.2869822,23.0298817 21.4615385,23.0298817 C20.6360947,23.0298817 19.9757396,22.3282544 19.9757396,21.5440828 C19.9757396,20.6773669 20.6360947,20.0170118 21.4615385,20.0170118 C22.2457101,20.0170118 22.9473373,20.6773669 22.9473373,21.5440828 Z" id="Shape" fill="#808080"></path>
                    <g id="Group" transform="translate(17.334320, 17.334320)" fill="#808080">
                        <g id="Shape">
                            <path d="M4.82884615,1.11434911 C4.82884615,1.52707101 4.49866864,1.85724852 4.08594675,1.85724852 C3.67322485,1.85724852 3.30177515,1.48579882 3.30177515,1.11434911 C3.30177515,0.701627219 3.67322485,0.371449704 4.08594675,0.371449704 C4.49866864,0.371449704 4.82884615,0.701627219 4.82884615,1.11434911 Z"></path>
                            <path d="M4.82884615,7.30517751 C4.82884615,7.71789941 4.49866864,8.04807692 4.08594675,8.04807692 C3.67322485,8.04807692 3.30177515,7.71789941 3.30177515,7.30517751 C3.30177515,6.85118343 3.67322485,6.52100592 4.08594675,6.52100592 C4.49866864,6.52100592 4.82884615,6.85118343 4.82884615,7.30517751 Z"></path>
                            <path d="M7.14008876,4.95266272 C6.76863905,4.95266272 6.39718935,4.62248521 6.39718935,4.20976331 C6.39718935,3.79704142 6.72736686,3.42559172 7.14008876,3.42559172 C7.59408284,3.42559172 7.92426036,3.75576923 7.92426036,4.20976331 C7.92426036,4.62248521 7.59408284,4.95266272 7.14008876,4.95266272 Z"></path>
                            <path d="M1.03180473,4.95266272 C0.61908284,4.95266272 0.288905325,4.62248521 0.288905325,4.20976331 C0.288905325,3.79704142 0.61908284,3.42559172 1.03180473,3.42559172 C1.44452663,3.42559172 1.77470414,3.75576923 1.77470414,4.20976331 C1.77470414,4.62248521 1.44452663,4.95266272 1.03180473,4.95266272 Z"></path>
                        </g>
                        <g transform="translate(0.825444, 1.238166)" id="Shape">
                            <path d="M5.98446746,1.32071006 C5.69556213,1.60961538 5.20029586,1.60961538 4.91139053,1.32071006 C4.58121302,1.03180473 4.58121302,0.536538462 4.91139053,0.247633136 C5.20029586,-0.0412721893 5.69556213,-0.0412721893 5.98446746,0.247633136 C6.27337278,0.536538462 6.27337278,1.03180473 5.98446746,1.32071006 Z"></path>
                            <path d="M1.60961538,5.65428994 C1.32071006,5.98446746 0.825443787,5.98446746 0.536538462,5.65428994 C0.247633136,5.36538462 0.247633136,4.87011834 0.536538462,4.62248521 C0.825443787,4.33357988 1.32071006,4.33357988 1.60961538,4.62248521 C1.89852071,4.87011834 1.89852071,5.36538462 1.60961538,5.65428994 Z"></path>
                            <path d="M4.91139053,5.65428994 C4.62248521,5.36538462 4.58121302,4.87011834 4.91139053,4.62248521 C5.20029586,4.33357988 5.69556213,4.33357988 5.98446746,4.62248521 C6.27337278,4.91139053 6.27337278,5.4066568 5.98446746,5.65428994 C5.69556213,5.94319527 5.20029586,5.94319527 4.91139053,5.65428994 Z"></path>
                            <path d="M0.577810651,1.32071006 C0.288905325,1.03180473 0.288905325,0.536538462 0.577810651,0.247633136 C0.866715976,-0.0412721893 1.36198225,-0.0412721893 1.65088757,0.247633136 C1.9397929,0.536538462 1.9397929,1.03180473 1.65088757,1.32071006 C1.32071006,1.60961538 0.866715976,1.60961538 0.577810651,1.32071006 Z"></path>
                        </g>
                    </g>
                </g>
                <g id="Group-16-Copy-2" transform="translate(19.000000, 50.000000)">
                    <path d="M21.4202663,4.82884615 C30.6652367,4.82884615 38.135503,12.3403846 38.135503,21.5440828 C38.135503,30.7477811 30.6652367,38.2593195 21.4202663,38.2593195 C12.216568,38.2593195 4.74630178,30.7477811 4.74630178,21.5440828 C4.74630178,12.2991124 12.216568,4.82884615 21.4202663,4.82884615 Z M21.4202663,0.165088757 C9.61642012,0.165088757 0.0412721893,9.6989645 0.0412721893,21.5440828 C0.0412721893,33.347929 9.61642012,42.9230769 21.4202663,42.9230769 C33.2241124,42.9230769 42.7992604,33.347929 42.7992604,21.5440828 C42.7992604,9.74023669 33.2241124,0.165088757 21.4202663,0.165088757 Z" id="Shape" fill="#000000"></path>
                    <path d="M39.2085799,21.5440828 C39.2085799,31.3255917 31.2430473,39.2911243 21.4615385,39.2911243 C11.6387574,39.2911243 3.71449704,31.3255917 3.71449704,21.5440828 C3.71449704,11.762574 11.6387574,3.79704142 21.4615385,3.79704142 C31.2017751,3.79704142 39.2085799,11.762574 39.2085799,21.5440828 Z" id="Shape" fill="#808080"></path>
                    <path d="M39.9087546,20.5407407 L26.2675709,20.5407407 L38.8594328,15.3333333 C38.676942,14.7395062 38.4488286,14.145679 38.1750925,13.5975309 L25.5832306,18.8506173 L35.2096178,9.16666667 C34.7533909,8.70987654 34.297164,8.25308642 33.8409371,7.7962963 L24.2145499,17.4345679 L29.4155364,4.82716049 C28.8224414,4.55308642 28.2293465,4.27901235 27.6362515,4.05061728 L22.4352651,16.7037037 L22.4352651,3.04567901 C22.1159063,3 21.7965475,3 21.4771887,3 C21.1578298,3 20.838471,3 20.5191122,3 L20.5191122,16.7037037 L15.3181258,4.05061728 C14.7250308,4.27901235 14.1319359,4.50740741 13.5388409,4.78148148 L18.7398274,17.3888889 L9.1134402,7.75061728 C8.65721332,8.1617284 8.20098644,8.61851852 7.74475956,9.12098765 L17.3711467,18.7592593 L4.77928483,13.5518519 C4.50554871,14.1 4.27743527,14.6938272 4.09494451,15.2876543 L16.6868064,20.5407407 L3,20.5407407 C3,20.8604938 3,21.1802469 3,21.5 C3,21.8197531 3,22.0938272 3,22.4592593 L16.6411837,22.4592593 L4.04932182,27.7123457 C4.27743527,28.3061728 4.50554871,28.9 4.77928483,29.4481481 L17.3711467,24.1950617 L7.74475956,33.8333333 C8.15536375,34.3358025 8.61159063,34.7925926 9.1134402,35.2037037 L18.7398274,25.5197531 L13.5388409,38.1728395 C14.0863132,38.4012346 14.6794081,38.6753086 15.3181258,38.9037037 L20.5191122,26.2962963 L20.5191122,39.954321 C20.838471,40 21.1578298,40 21.4771887,40 C21.7965475,40 22.1159063,40 22.4352651,39.954321 L22.4352651,26.2962963 L27.6362515,38.9037037 C28.2293465,38.7209877 28.8224414,38.4469136 29.4155364,38.1728395 L24.2145499,25.5197531 L33.8409371,35.2037037 C34.3427867,34.7925926 34.7533909,34.3358025 35.2096178,33.8333333 L25.5832306,24.1950617 L38.1750925,29.4481481 C38.4488286,28.9 38.676942,28.2604938 38.9050555,27.6666667 L26.3131936,22.4135802 L39.9543773,22.4135802 C40,22.0938272 40,21.7740741 40,21.454321 C39.9543773,21.1802469 39.9543773,20.8604938 39.9087546,20.5407407 Z" id="Shape" fill="#000000"></path>
                    <path d="M22.9473373,21.5440828 C22.9473373,22.3695266 22.2869822,23.0298817 21.4615385,23.0298817 C20.6360947,23.0298817 19.9757396,22.3282544 19.9757396,21.5440828 C19.9757396,20.6773669 20.6360947,20.0170118 21.4615385,20.0170118 C22.2457101,20.0170118 22.9473373,20.6773669 22.9473373,21.5440828 Z" id="Shape" fill="#808080"></path>
                    <g id="Group" transform="translate(17.334320, 17.334320)" fill="#808080">
                        <g id="Shape">
                            <path d="M4.82884615,1.11434911 C4.82884615,1.52707101 4.49866864,1.85724852 4.08594675,1.85724852 C3.67322485,1.85724852 3.30177515,1.48579882 3.30177515,1.11434911 C3.30177515,0.701627219 3.67322485,0.371449704 4.08594675,0.371449704 C4.49866864,0.371449704 4.82884615,0.701627219 4.82884615,1.11434911 Z"></path>
                            <path d="M4.82884615,7.30517751 C4.82884615,7.71789941 4.49866864,8.04807692 4.08594675,8.04807692 C3.67322485,8.04807692 3.30177515,7.71789941 3.30177515,7.30517751 C3.30177515,6.85118343 3.67322485,6.52100592 4.08594675,6.52100592 C4.49866864,6.52100592 4.82884615,6.85118343 4.82884615,7.30517751 Z"></path>
                            <path d="M7.14008876,4.95266272 C6.76863905,4.95266272 6.39718935,4.62248521 6.39718935,4.20976331 C6.39718935,3.79704142 6.72736686,3.42559172 7.14008876,3.42559172 C7.59408284,3.42559172 7.92426036,3.75576923 7.92426036,4.20976331 C7.92426036,4.62248521 7.59408284,4.95266272 7.14008876,4.95266272 Z"></path>
                            <path d="M1.03180473,4.95266272 C0.61908284,4.95266272 0.288905325,4.62248521 0.288905325,4.20976331 C0.288905325,3.79704142 0.61908284,3.42559172 1.03180473,3.42559172 C1.44452663,3.42559172 1.77470414,3.75576923 1.77470414,4.20976331 C1.77470414,4.62248521 1.44452663,4.95266272 1.03180473,4.95266272 Z"></path>
                        </g>
                        <g transform="translate(0.825444, 1.238166)" id="Shape">
                            <path d="M5.98446746,1.32071006 C5.69556213,1.60961538 5.20029586,1.60961538 4.91139053,1.32071006 C4.58121302,1.03180473 4.58121302,0.536538462 4.91139053,0.247633136 C5.20029586,-0.0412721893 5.69556213,-0.0412721893 5.98446746,0.247633136 C6.27337278,0.536538462 6.27337278,1.03180473 5.98446746,1.32071006 Z"></path>
                            <path d="M1.60961538,5.65428994 C1.32071006,5.98446746 0.825443787,5.98446746 0.536538462,5.65428994 C0.247633136,5.36538462 0.247633136,4.87011834 0.536538462,4.62248521 C0.825443787,4.33357988 1.32071006,4.33357988 1.60961538,4.62248521 C1.89852071,4.87011834 1.89852071,5.36538462 1.60961538,5.65428994 Z"></path>
                            <path d="M4.91139053,5.65428994 C4.62248521,5.36538462 4.58121302,4.87011834 4.91139053,4.62248521 C5.20029586,4.33357988 5.69556213,4.33357988 5.98446746,4.62248521 C6.27337278,4.91139053 6.27337278,5.4066568 5.98446746,5.65428994 C5.69556213,5.94319527 5.20029586,5.94319527 4.91139053,5.65428994 Z"></path>
                            <path d="M0.577810651,1.32071006 C0.288905325,1.03180473 0.288905325,0.536538462 0.577810651,0.247633136 C0.866715976,-0.0412721893 1.36198225,-0.0412721893 1.65088757,0.247633136 C1.9397929,0.536538462 1.9397929,1.03180473 1.65088757,1.32071006 C1.32071006,1.60961538 0.866715976,1.60961538 0.577810651,1.32071006 Z"></path>
                        </g>
                    </g>
                </g>
            </g>
        </g>
    </g>
</svg>