
<svg width="260px" height="124px" viewBox="0 0 260 124" version="1.1" xmlns="http://www.w3.org/2000/svg" xmlns:xlink="http://www.w3.org/1999/xlink">
    <g id="PROTOTYPE" stroke="none" stroke-width="1" fill="none" fill-rule="evenodd">
        <g id="Group-11" fill-rule="nonzero">
            <path d="M213.611424,85.1398393 C222.891719,85.1398393 230.390528,92.6800784 230.390528,101.918943 C230.390528,111.157807 222.891719,118.698046 213.611424,118.698046 C204.37256,118.698046 196.873751,111.157807 196.873751,101.918943 C196.873751,92.6386485 204.37256,85.1398393 213.611424,85.1398393 Z M213.611424,80.4582623 C201.762477,80.4582623 192.150744,90.0285657 192.150744,101.918943 C192.150744,113.76789 201.762477,123.379623 213.611424,123.379623 C225.460371,123.379623 235.072105,113.76789 235.072105,101.918943 C235.072105,90.0699956 225.460371,80.4582623 213.611424,80.4582623 Z" id="Shape-Copy-19" fill="#88A494"></path>
            <path d="M232.211985,101.077487 L231.158654,95.8501823 C230.975466,95.2540862 230.74648,94.6579901 230.471698,94.1077476 L217.831725,99.3809054 L227.494893,89.6599536 C227.036923,89.2014182 226.578953,88.7428827 226.120983,88.2843472 L221.678673,85.3038667 C221.083312,85.0287455 220.487951,84.7536242 219.89259,84.5243565 L214.671731,97.2257887 L214.671731,83.5155784 C214.351152,83.4697249 214.030573,83.4697249 213.709994,83.4697249 C213.389415,83.4697249 213.068836,83.4697249 212.748257,83.4697249 L207.527398,84.5243565 C206.932037,84.7536242 206.336676,84.9828919 205.741315,85.2580132 L210.962174,97.9135919 L201.299005,88.2384937 C200.841035,88.6511756 200.383065,89.1097111 199.925095,89.6141001 L196.94829,94.061894 C196.673508,94.6121366 196.444523,95.2082327 196.261335,95.8043288 L208.901308,101.077487 L195.162206,101.077487 C195.162206,101.398461 195.162206,101.719436 195.162206,102.040411 C195.162206,102.361386 195.162206,102.636507 195.162206,103.003336 L196.215538,108.276493 C196.444523,108.872589 196.673508,109.468685 196.94829,110.018928 L209.588263,104.74577 L199.925095,114.420868 C200.337268,114.925257 200.795238,115.383793 201.299005,115.796475 L205.741315,118.776955 C206.290879,119.006223 206.88624,119.281344 207.527398,119.510612 L212.748257,106.855033 L212.748257,120.565244 C213.068836,120.611097 213.389415,120.611097 213.709994,120.611097 C214.030573,120.611097 214.351152,120.611097 214.671731,120.565244 L219.89259,119.510612 C220.487951,119.327198 221.083312,119.052077 221.678673,118.776955 L216.457814,106.075523 L226.120983,115.796475 C226.62475,115.383793 227.036923,114.925257 227.494893,114.420868 L230.471698,110.018928 C230.74648,109.468685 230.975466,108.826736 231.204451,108.23064 L218.564477,102.957482 L232.257782,102.957482 C232.303579,102.636507 232.303579,102.315532 232.303579,101.994557 C232.257782,101.719436 232.257782,101.398461 232.211985,101.077487 Z" id="Shape-Copy-20" fill="#88A494"></path>
            <path d="M40.5009724,85.1398393 C49.7812667,85.1398393 57.2800759,92.6800784 57.2800759,101.918943 C57.2800759,111.157807 49.7812667,118.698046 40.5009724,118.698046 C31.262108,118.698046 23.7632988,111.157807 23.7632988,101.918943 C23.7632988,92.6386485 31.262108,85.1398393 40.5009724,85.1398393 Z M40.5009724,80.4582623 C28.6520253,80.4582623 19.0402919,90.0285657 19.0402919,101.918943 C19.0402919,113.76789 28.6520253,123.379623 40.5009724,123.379623 C52.3499195,123.379623 61.9616529,113.76789 61.9616529,101.918943 C61.9616529,90.0699956 52.3499195,80.4582623 40.5009724,80.4582623 Z" id="Shape-Copy-17" fill="#88A494"></path>
            <path d="M59.1015328,101.077487 L58.0482016,95.8501823 C57.8650136,95.2540862 57.6360286,94.6579901 57.3612465,94.1077476 L44.7212727,99.3809054 L54.3844411,89.6599536 C53.9264711,89.2014182 53.468501,88.7428827 53.0105309,88.2843472 L48.5682213,85.3038667 C47.9728602,85.0287455 47.3774991,84.7536242 46.782138,84.5243565 L41.5612793,97.2257887 L41.5612793,83.5155784 C41.2407003,83.4697249 40.9201212,83.4697249 40.5995422,83.4697249 C40.2789631,83.4697249 39.9583841,83.4697249 39.637805,83.4697249 L34.4169463,84.5243565 C33.8215852,84.7536242 33.2262241,84.9828919 32.630863,85.2580132 L37.8517218,97.9135919 L28.1885534,88.2384937 C27.7305833,88.6511756 27.2726133,89.1097111 26.8146432,89.6141001 L23.8378378,94.061894 C23.5630557,94.6121366 23.3340707,95.2082327 23.1508827,95.8043288 L35.7908565,101.077487 L22.0517545,101.077487 C22.0517545,101.398461 22.0517545,101.719436 22.0517545,102.040411 C22.0517545,102.361386 22.0517545,102.636507 22.0517545,103.003336 L23.1050857,108.276493 C23.3340707,108.872589 23.5630557,109.468685 23.8378378,110.018928 L36.4778116,104.74577 L26.8146432,114.420868 C27.2268163,114.925257 27.6847863,115.383793 28.1885534,115.796475 L32.630863,118.776955 C33.1804271,119.006223 33.7757882,119.281344 34.4169463,119.510612 L39.637805,106.855033 L39.637805,120.565244 C39.9583841,120.611097 40.2789631,120.611097 40.5995422,120.611097 C40.9201212,120.611097 41.2407003,120.611097 41.5612793,120.565244 L46.782138,119.510612 C47.3774991,119.327198 47.9728602,119.052077 48.5682213,118.776955 L43.3473626,106.075523 L53.0105309,115.796475 C53.514298,115.383793 53.9264711,114.925257 54.3844411,114.420868 L57.3612465,110.018928 C57.6360286,109.468685 57.8650136,108.826736 58.0939986,108.23064 L45.4540249,102.957482 L59.1473298,102.957482 C59.1931268,102.636507 59.1931268,102.315532 59.1931268,101.994557 C59.1473298,101.719436 59.1473298,101.398461 59.1015328,101.077487 Z" id="Shape-Copy-18" fill="#88A494"></path>
            <path d="M242.215356,92.856508 C237.42815,105.835209 239.927335,110.062217 238.265788,110.062217 C237.611773,110.062217 236.63075,110.062217 235.32272,110.062217 C238.86658,100.070124 235.530371,88.9074644 227.10907,82.5800671 C218.687768,76.2526698 207.167296,76.2526698 198.745994,82.5800671 C190.324693,88.9074644 186.988484,100.070124 190.532344,110.062217 L62.489269,110.062217 C66.0662211,100.073894 62.7493493,88.8929538 54.328285,82.5521174 C45.9072206,76.211281 34.3750391,76.211281 25.9539747,82.5521174 C17.5329103,88.8929538 14.2160385,100.073894 17.7929907,110.062217 L13.5233199,110.062217 C-6.09599388,100.060282 0.173247266,82.4854541 4.48996678,78.0322116 C8.80668629,73.5789692 7.50108447,68.3160463 10.371056,61.2551566 C13.2410276,54.1942668 31.060728,38.7150819 31.060728,38.7150819 C26.1676618,37.9292156 24.073994,36.0955275 24.073994,36.0955275 L25.1090657,34.7619362 C43.0111014,36.8933009 66.2414039,28.1773291 111.231737,30.8445117 C156.222069,33.5116944 196.82511,59.2071413 196.82511,59.2071413 L201.000683,60.1120783 C201.529981,60.243056 214.174323,47.0143065 216.820813,47.0143065 C226.371702,47.0143065 232.805614,60.6478963 232.805614,63.0293093 C242.921087,57.3020109 240.815657,83.021272 242.215356,92.856508 Z M219.384908,49.631264 C214.534703,48.1335539 204.799976,60.7353804 204.799976,60.7353804 L231.384588,67.6739906 C231.384588,67.6739906 223.708911,50.976863 219.384908,49.631264 Z M115.586555,53.0644773 C116.208632,56.0540653 118.661677,58.3043198 121.671623,58.6464988 L190.573309,62.6117403 C193.475418,62.7769587 193.803075,61.6440325 191.310538,60.1924709 C191.310538,60.1924709 156.20438,39.032715 123.298208,35.9053668 L117.669521,35.4097116 C116.384459,35.2457063 115.101472,35.7285747 114.237151,36.7015274 C113.37283,37.67448 113.037394,39.013445 113.339761,40.2836543 L115.586555,53.0644773 Z M48.3534428,39.6954478 C44.8163521,40.9042725 44.5687557,43.9625992 46.4669944,46.3077192 L50.0040852,50.5748707 C52.2924784,53.075851 55.3710708,54.6647527 58.6935381,55.0596106 L101.079675,57.5739661 C102.456949,57.6509444 103.803817,57.1396822 104.800134,56.1617047 C105.796451,55.1837272 106.353238,53.8263744 106.33815,52.4122843 L106.33815,39.6954478 C106.352007,38.2743203 105.797714,36.9093513 104.804271,35.9182081 C103.810828,34.9270649 102.464882,34.3961954 101.079675,34.4491482 C101.079675,34.4491482 68.8096176,33.3007647 48.3534428,39.6954478 Z" id="Combined-Shape-Copy-11" fill="#72202C"></path>
            <path d="M241.114216,72.8000805 C241.114216,72.8000805 235.421894,74.5592131 236.976336,77.5649752 C238.530778,80.5707372 241.519247,80.8200631 241.563034,80.1551941 C241.6358,77.6898492 241.485213,75.2220693 241.114216,72.8000805 Z" id="Shape-Copy-3-Copy-3" fill="#EAEAEA"></path>
            <path d="M10.6701782,63.0900761 C11.0151265,62.731945 13.4297649,65.0399012 13.2141722,67.8253657 C12.9985795,70.6506225 12.3518014,75.2665351 6.96198347,75.5848738 C6.96198347,75.5848738 8.25553976,65.6367865 10.6701782,63.0900761 Z" id="Shape-Copy-27" fill="#CA4C31"></path>
            <path d="M259.528926,23.2264454 C259.528926,19.7540533 256.16669,16.7755124 251.343935,15.3865556 C252.837911,14.0592335 253.728962,12.1677719 253.808561,10.154818 C253.808561,4.55269196 246.11041,2.16715534e-13 236.632252,2.16715534e-13 C227.154094,2.16715534e-13 219.455944,4.55269196 219.455944,10.154818 C219.455944,13.117926 221.60108,15.7723769 225.008957,17.6243194 C218.558333,18.4731264 213.720365,21.9609514 213.720365,26.127822 C213.748039,27.0283288 213.993598,27.9081139 214.435411,28.6896758 C210.510267,30.8194097 208,34.0757419 208,37.7487612 C208.168033,40.9735489 209.870098,43.9144893 212.564121,45.6349496 C209.764793,47.178235 208,49.6011931 208,52.255644 C208,57.0706945 213.766006,60.9752066 220.886035,60.9752066 C228.006064,60.9752066 233.77207,57.0706945 233.77207,52.255644 C233.77207,52.255644 233.77207,52.1476141 233.77207,52.0858826 C234.73169,52.1976019 235.696762,52.2542792 236.66268,52.255644 C246.140837,52.255644 253.838988,47.0547722 253.838988,40.6501377 C253.838988,37.0851484 251.465645,33.9059805 247.753494,31.7762466 C254.41711,31.0663353 259.528926,27.5167789 259.528926,23.2264454 Z" id="Shape-Copy-26" fill="#636161" opacity="0.844210379"></path>
        </g>
    </g>
</svg>