
<svg width="260px" height="122px" viewBox="0 0 260 122" version="1.1" xmlns="http://www.w3.org/2000/svg" xmlns:xlink="http://www.w3.org/1999/xlink">
    <!-- Generator: Sketch 51.3 (57544) - http://www.bohemiancoding.com/sketch -->
    <desc>Created with Sketch.</desc>
    <defs></defs>
    <g id="Page-1" stroke="none" stroke-width="1" fill="none" fill-rule="evenodd">
        <g id="Group-19" fill-rule="nonzero">
            <g id="Group-16-Copy-4" transform="translate(192.000000, 79.000000)">
                <path d="M21.4202663,4.82884615 C30.6652367,4.82884615 38.135503,12.3403846 38.135503,21.5440828 C38.135503,30.7477811 30.6652367,38.2593195 21.4202663,38.2593195 C12.216568,38.2593195 4.74630178,30.7477811 4.74630178,21.5440828 C4.74630178,12.2991124 12.216568,4.82884615 21.4202663,4.82884615 Z M21.4202663,0.165088757 C9.61642012,0.165088757 0.0412721893,9.6989645 0.0412721893,21.5440828 C0.0412721893,33.347929 9.61642012,42.9230769 21.4202663,42.9230769 C33.2241124,42.9230769 42.7992604,33.347929 42.7992604,21.5440828 C42.7992604,9.74023669 33.2241124,0.165088757 21.4202663,0.165088757 Z" id="Shape" fill="#000000"></path>
                <path d="M39.2085799,21.5440828 C39.2085799,31.3255917 31.2430473,39.2911243 21.4615385,39.2911243 C11.6387574,39.2911243 3.71449704,31.3255917 3.71449704,21.5440828 C3.71449704,11.762574 11.6387574,3.79704142 21.4615385,3.79704142 C31.2017751,3.79704142 39.2085799,11.762574 39.2085799,21.5440828 Z" id="Shape" fill="#808080"></path>
                <path d="M39.9087546,20.5407407 L26.2675709,20.5407407 L38.8594328,15.3333333 C38.676942,14.7395062 38.4488286,14.145679 38.1750925,13.5975309 L25.5832306,18.8506173 L35.2096178,9.16666667 C34.7533909,8.70987654 34.297164,8.25308642 33.8409371,7.7962963 L24.2145499,17.4345679 L29.4155364,4.82716049 C28.8224414,4.55308642 28.2293465,4.27901235 27.6362515,4.05061728 L22.4352651,16.7037037 L22.4352651,3.04567901 C22.1159063,3 21.7965475,3 21.4771887,3 C21.1578298,3 20.838471,3 20.5191122,3 L20.5191122,16.7037037 L15.3181258,4.05061728 C14.7250308,4.27901235 14.1319359,4.50740741 13.5388409,4.78148148 L18.7398274,17.3888889 L9.1134402,7.75061728 C8.65721332,8.1617284 8.20098644,8.61851852 7.74475956,9.12098765 L17.3711467,18.7592593 L4.77928483,13.5518519 C4.50554871,14.1 4.27743527,14.6938272 4.09494451,15.2876543 L16.6868064,20.5407407 L3,20.5407407 C3,20.8604938 3,21.1802469 3,21.5 C3,21.8197531 3,22.0938272 3,22.4592593 L16.6411837,22.4592593 L4.04932182,27.7123457 C4.27743527,28.3061728 4.50554871,28.9 4.77928483,29.4481481 L17.3711467,24.1950617 L7.74475956,33.8333333 C8.15536375,34.3358025 8.61159063,34.7925926 9.1134402,35.2037037 L18.7398274,25.5197531 L13.5388409,38.1728395 C14.0863132,38.4012346 14.6794081,38.6753086 15.3181258,38.9037037 L20.5191122,26.2962963 L20.5191122,39.954321 C20.838471,40 21.1578298,40 21.4771887,40 C21.7965475,40 22.1159063,40 22.4352651,39.954321 L22.4352651,26.2962963 L27.6362515,38.9037037 C28.2293465,38.7209877 28.8224414,38.4469136 29.4155364,38.1728395 L24.2145499,25.5197531 L33.8409371,35.2037037 C34.3427867,34.7925926 34.7533909,34.3358025 35.2096178,33.8333333 L25.5832306,24.1950617 L38.1750925,29.4481481 C38.4488286,28.9 38.676942,28.2604938 38.9050555,27.6666667 L26.3131936,22.4135802 L39.9543773,22.4135802 C40,22.0938272 40,21.7740741 40,21.454321 C39.9543773,21.1802469 39.9543773,20.8604938 39.9087546,20.5407407 Z" id="Shape" fill="#000000"></path>
                <path d="M22.9473373,21.5440828 C22.9473373,22.3695266 22.2869822,23.0298817 21.4615385,23.0298817 C20.6360947,23.0298817 19.9757396,22.3282544 19.9757396,21.5440828 C19.9757396,20.6773669 20.6360947,20.0170118 21.4615385,20.0170118 C22.2457101,20.0170118 22.9473373,20.6773669 22.9473373,21.5440828 Z" id="Shape" fill="#808080"></path>
                <g id="Group" transform="translate(17.334320, 17.334320)" fill="#808080">
                    <g id="Shape">
                        <path d="M4.82884615,1.11434911 C4.82884615,1.52707101 4.49866864,1.85724852 4.08594675,1.85724852 C3.67322485,1.85724852 3.30177515,1.48579882 3.30177515,1.11434911 C3.30177515,0.701627219 3.67322485,0.371449704 4.08594675,0.371449704 C4.49866864,0.371449704 4.82884615,0.701627219 4.82884615,1.11434911 Z"></path>
                        <path d="M4.82884615,7.30517751 C4.82884615,7.71789941 4.49866864,8.04807692 4.08594675,8.04807692 C3.67322485,8.04807692 3.30177515,7.71789941 3.30177515,7.30517751 C3.30177515,6.85118343 3.67322485,6.52100592 4.08594675,6.52100592 C4.49866864,6.52100592 4.82884615,6.85118343 4.82884615,7.30517751 Z"></path>
                        <path d="M7.14008876,4.95266272 C6.76863905,4.95266272 6.39718935,4.62248521 6.39718935,4.20976331 C6.39718935,3.79704142 6.72736686,3.42559172 7.14008876,3.42559172 C7.59408284,3.42559172 7.92426036,3.75576923 7.92426036,4.20976331 C7.92426036,4.62248521 7.59408284,4.95266272 7.14008876,4.95266272 Z"></path>
                        <path d="M1.03180473,4.95266272 C0.61908284,4.95266272 0.288905325,4.62248521 0.288905325,4.20976331 C0.288905325,3.79704142 0.61908284,3.42559172 1.03180473,3.42559172 C1.44452663,3.42559172 1.77470414,3.75576923 1.77470414,4.20976331 C1.77470414,4.62248521 1.44452663,4.95266272 1.03180473,4.95266272 Z"></path>
                    </g>
                    <g transform="translate(0.825444, 1.238166)" id="Shape">
                        <path d="M5.98446746,1.32071006 C5.69556213,1.60961538 5.20029586,1.60961538 4.91139053,1.32071006 C4.58121302,1.03180473 4.58121302,0.536538462 4.91139053,0.247633136 C5.20029586,-0.0412721893 5.69556213,-0.0412721893 5.98446746,0.247633136 C6.27337278,0.536538462 6.27337278,1.03180473 5.98446746,1.32071006 Z"></path>
                        <path d="M1.60961538,5.65428994 C1.32071006,5.98446746 0.825443787,5.98446746 0.536538462,5.65428994 C0.247633136,5.36538462 0.247633136,4.87011834 0.536538462,4.62248521 C0.825443787,4.33357988 1.32071006,4.33357988 1.60961538,4.62248521 C1.89852071,4.87011834 1.89852071,5.36538462 1.60961538,5.65428994 Z"></path>
                        <path d="M4.91139053,5.65428994 C4.62248521,5.36538462 4.58121302,4.87011834 4.91139053,4.62248521 C5.20029586,4.33357988 5.69556213,4.33357988 5.98446746,4.62248521 C6.27337278,4.91139053 6.27337278,5.4066568 5.98446746,5.65428994 C5.69556213,5.94319527 5.20029586,5.94319527 4.91139053,5.65428994 Z"></path>
                        <path d="M0.577810651,1.32071006 C0.288905325,1.03180473 0.288905325,0.536538462 0.577810651,0.247633136 C0.866715976,-0.0412721893 1.36198225,-0.0412721893 1.65088757,0.247633136 C1.9397929,0.536538462 1.9397929,1.03180473 1.65088757,1.32071006 C1.32071006,1.60961538 0.866715976,1.60961538 0.577810651,1.32071006 Z"></path>
                    </g>
                </g>
            </g>
            <g id="Group-16-Copy-5" transform="translate(19.000000, 79.000000)">
                <path d="M21.4202663,4.82884615 C30.6652367,4.82884615 38.135503,12.3403846 38.135503,21.5440828 C38.135503,30.7477811 30.6652367,38.2593195 21.4202663,38.2593195 C12.216568,38.2593195 4.74630178,30.7477811 4.74630178,21.5440828 C4.74630178,12.2991124 12.216568,4.82884615 21.4202663,4.82884615 Z M21.4202663,0.165088757 C9.61642012,0.165088757 0.0412721893,9.6989645 0.0412721893,21.5440828 C0.0412721893,33.347929 9.61642012,42.9230769 21.4202663,42.9230769 C33.2241124,42.9230769 42.7992604,33.347929 42.7992604,21.5440828 C42.7992604,9.74023669 33.2241124,0.165088757 21.4202663,0.165088757 Z" id="Shape" fill="#000000"></path>
                <path d="M39.2085799,21.5440828 C39.2085799,31.3255917 31.2430473,39.2911243 21.4615385,39.2911243 C11.6387574,39.2911243 3.71449704,31.3255917 3.71449704,21.5440828 C3.71449704,11.762574 11.6387574,3.79704142 21.4615385,3.79704142 C31.2017751,3.79704142 39.2085799,11.762574 39.2085799,21.5440828 Z" id="Shape" fill="#808080"></path>
                <path d="M39.9087546,20.5407407 L26.2675709,20.5407407 L38.8594328,15.3333333 C38.676942,14.7395062 38.4488286,14.145679 38.1750925,13.5975309 L25.5832306,18.8506173 L35.2096178,9.16666667 C34.7533909,8.70987654 34.297164,8.25308642 33.8409371,7.7962963 L24.2145499,17.4345679 L29.4155364,4.82716049 C28.8224414,4.55308642 28.2293465,4.27901235 27.6362515,4.05061728 L22.4352651,16.7037037 L22.4352651,3.04567901 C22.1159063,3 21.7965475,3 21.4771887,3 C21.1578298,3 20.838471,3 20.5191122,3 L20.5191122,16.7037037 L15.3181258,4.05061728 C14.7250308,4.27901235 14.1319359,4.50740741 13.5388409,4.78148148 L18.7398274,17.3888889 L9.1134402,7.75061728 C8.65721332,8.1617284 8.20098644,8.61851852 7.74475956,9.12098765 L17.3711467,18.7592593 L4.77928483,13.5518519 C4.50554871,14.1 4.27743527,14.6938272 4.09494451,15.2876543 L16.6868064,20.5407407 L3,20.5407407 C3,20.8604938 3,21.1802469 3,21.5 C3,21.8197531 3,22.0938272 3,22.4592593 L16.6411837,22.4592593 L4.04932182,27.7123457 C4.27743527,28.3061728 4.50554871,28.9 4.77928483,29.4481481 L17.3711467,24.1950617 L7.74475956,33.8333333 C8.15536375,34.3358025 8.61159063,34.7925926 9.1134402,35.2037037 L18.7398274,25.5197531 L13.5388409,38.1728395 C14.0863132,38.4012346 14.6794081,38.6753086 15.3181258,38.9037037 L20.5191122,26.2962963 L20.5191122,39.954321 C20.838471,40 21.1578298,40 21.4771887,40 C21.7965475,40 22.1159063,40 22.4352651,39.954321 L22.4352651,26.2962963 L27.6362515,38.9037037 C28.2293465,38.7209877 28.8224414,38.4469136 29.4155364,38.1728395 L24.2145499,25.5197531 L33.8409371,35.2037037 C34.3427867,34.7925926 34.7533909,34.3358025 35.2096178,33.8333333 L25.5832306,24.1950617 L38.1750925,29.4481481 C38.4488286,28.9 38.676942,28.2604938 38.9050555,27.6666667 L26.3131936,22.4135802 L39.9543773,22.4135802 C40,22.0938272 40,21.7740741 40,21.454321 C39.9543773,21.1802469 39.9543773,20.8604938 39.9087546,20.5407407 Z" id="Shape" fill="#000000"></path>
                <path d="M22.9473373,21.5440828 C22.9473373,22.3695266 22.2869822,23.0298817 21.4615385,23.0298817 C20.6360947,23.0298817 19.9757396,22.3282544 19.9757396,21.5440828 C19.9757396,20.6773669 20.6360947,20.0170118 21.4615385,20.0170118 C22.2457101,20.0170118 22.9473373,20.6773669 22.9473373,21.5440828 Z" id="Shape" fill="#808080"></path>
                <g id="Group" transform="translate(17.334320, 17.334320)" fill="#808080">
                    <g id="Shape">
                        <path d="M4.82884615,1.11434911 C4.82884615,1.52707101 4.49866864,1.85724852 4.08594675,1.85724852 C3.67322485,1.85724852 3.30177515,1.48579882 3.30177515,1.11434911 C3.30177515,0.701627219 3.67322485,0.371449704 4.08594675,0.371449704 C4.49866864,0.371449704 4.82884615,0.701627219 4.82884615,1.11434911 Z"></path>
                        <path d="M4.82884615,7.30517751 C4.82884615,7.71789941 4.49866864,8.04807692 4.08594675,8.04807692 C3.67322485,8.04807692 3.30177515,7.71789941 3.30177515,7.30517751 C3.30177515,6.85118343 3.67322485,6.52100592 4.08594675,6.52100592 C4.49866864,6.52100592 4.82884615,6.85118343 4.82884615,7.30517751 Z"></path>
                        <path d="M7.14008876,4.95266272 C6.76863905,4.95266272 6.39718935,4.62248521 6.39718935,4.20976331 C6.39718935,3.79704142 6.72736686,3.42559172 7.14008876,3.42559172 C7.59408284,3.42559172 7.92426036,3.75576923 7.92426036,4.20976331 C7.92426036,4.62248521 7.59408284,4.95266272 7.14008876,4.95266272 Z"></path>
                        <path d="M1.03180473,4.95266272 C0.61908284,4.95266272 0.288905325,4.62248521 0.288905325,4.20976331 C0.288905325,3.79704142 0.61908284,3.42559172 1.03180473,3.42559172 C1.44452663,3.42559172 1.77470414,3.75576923 1.77470414,4.20976331 C1.77470414,4.62248521 1.44452663,4.95266272 1.03180473,4.95266272 Z"></path>
                    </g>
                    <g transform="translate(0.825444, 1.238166)" id="Shape">
                        <path d="M5.98446746,1.32071006 C5.69556213,1.60961538 5.20029586,1.60961538 4.91139053,1.32071006 C4.58121302,1.03180473 4.58121302,0.536538462 4.91139053,0.247633136 C5.20029586,-0.0412721893 5.69556213,-0.0412721893 5.98446746,0.247633136 C6.27337278,0.536538462 6.27337278,1.03180473 5.98446746,1.32071006 Z"></path>
                        <path d="M1.60961538,5.65428994 C1.32071006,5.98446746 0.825443787,5.98446746 0.536538462,5.65428994 C0.247633136,5.36538462 0.247633136,4.87011834 0.536538462,4.62248521 C0.825443787,4.33357988 1.32071006,4.33357988 1.60961538,4.62248521 C1.89852071,4.87011834 1.89852071,5.36538462 1.60961538,5.65428994 Z"></path>
                        <path d="M4.91139053,5.65428994 C4.62248521,5.36538462 4.58121302,4.87011834 4.91139053,4.62248521 C5.20029586,4.33357988 5.69556213,4.33357988 5.98446746,4.62248521 C6.27337278,4.91139053 6.27337278,5.4066568 5.98446746,5.65428994 C5.69556213,5.94319527 5.20029586,5.94319527 4.91139053,5.65428994 Z"></path>
                        <path d="M0.577810651,1.32071006 C0.288905325,1.03180473 0.288905325,0.536538462 0.577810651,0.247633136 C0.866715976,-0.0412721893 1.36198225,-0.0412721893 1.65088757,0.247633136 C1.9397929,0.536538462 1.9397929,1.03180473 1.65088757,1.32071006 C1.32071006,1.60961538 0.866715976,1.60961538 0.577810651,1.32071006 Z"></path>
                    </g>
                </g>
            </g>
            <path d="M242.961739,91.9518749 C241.557726,82.2067182 243.669644,56.7230156 233.523,62.3978586 C233.523,60.0382565 227.069262,46.5295345 217.488943,46.5295345 C214.834297,46.5295345 202.150992,59.6371241 201.620063,59.507346 L197.431623,58.6106972 C197.431623,58.6106972 156.703465,33.1505906 111.574495,30.5078363 C66.4455256,27.8650819 43.1436393,36.5012256 25.1864388,34.3893817 L24.1481776,35.7107589 C24.1481776,35.7107589 26.2482969,37.5276525 31.1564411,38.3063212 C31.1564411,38.3063212 13.2818296,53.6437348 10.4030142,60.639955 C7.52419893,67.6361753 8.83382393,72.8508959 4.50380253,77.2633518 C0.173781124,81.6758077 -6.11477857,99.0896712 13.5649917,109 L17.8478194,109 C14.259845,99.103158 17.5869376,88.0246222 26.0339514,81.7418605 C34.4809651,75.4590988 46.0486828,75.4590988 54.4956966,81.7418605 C62.9427103,88.0246222 66.269803,99.103158 62.6818285,109 L191.119466,109 C187.564686,99.0994223 190.911175,88.039 199.358427,81.7695543 C207.805678,75.5001085 219.36165,75.5001085 227.808902,81.7695543 C236.256154,88.039 239.602643,99.0994223 236.047863,109 C237.359924,109 238.343969,109 239,109 C240.666667,109 238.15978,104.811706 242.961739,91.9518749 Z" id="Shape-Copy" fill="#6E1F1F"></path>
            <path d="M219.812823,49.1225238 C214.886833,47.638531 205,60.1249394 205,60.1249394 L232,67 C232,67 224.204389,50.4557986 219.812823,49.1225238 Z" id="Rectangle-3" fill="#DDDDDD"></path>
            <path d="M241.521267,72 C241.521267,72 235.681057,73.6079441 237.275884,76.3553762 C238.87071,79.1028083 241.93682,79.3307059 241.981745,78.722979 C242.056402,76.469518 241.901903,74.2138312 241.521267,72 Z" id="Shape-Copy-3" fill="#EAEAEA"></path>
            <path d="M116.363071,52.5242928 C116.987067,55.4864997 119.447684,57.7161445 122.46692,58.0551895 L191.581273,61.984114 C194.49234,62.1478192 194.821008,61.0252694 192.320778,59.5870023 C192.320778,59.5870023 157.106264,38.6210451 124.098526,35.5223398 L118.452465,35.0312242 C117.163437,34.868721 115.87649,35.3471669 115.009501,36.3112085 C114.142513,37.27525 113.806041,38.6019516 114.109342,39.8605273 L116.363071,52.5242928 Z" id="Shape-3" fill="#CCCCCC"></path>
            <path d="M49.0588264,39.277708 C45.5244094,40.4754614 45.2770002,43.5057773 47.173804,45.8294188 L50.7082209,50.0574881 C52.9948843,52.5355624 56.0711495,54.1099115 59.3911052,54.501153 L101.745202,56.99248 C103.121434,57.0687532 104.467284,56.5621736 105.462848,55.5931532 C106.458412,54.6241328 107.014778,53.2792119 106.999701,51.8780732 L106.999701,39.277708 C107.013548,37.8695965 106.459674,36.5171289 105.466981,35.5350635 C104.474289,34.552998 103.129361,34.0269907 101.745202,34.0794585 C101.745202,34.0794585 69.4995377,32.9415928 49.0588264,39.277708 Z" id="Shape-4" fill="#CCCCCC"></path>
            <path d="M10.5895382,62.0394027 C10.9245618,61.6609911 13.2218662,64.0615397 12.9825637,66.9469281 C12.7432611,69.8323166 12.1569699,74.6688899 7,75 C7.04786051,75 8.28026863,64.6646332 10.5895382,62.0394027 Z" id="Shape-Copy-5" fill="#767676"></path>
            <path d="M260,23.2358896 C260,19.7620855 256.607027,16.7823336 251.740183,15.3928119 C253.247817,14.0649502 254.147014,12.1727195 254.22734,10.1589471 C254.22734,4.55454315 246.458813,0 236.894006,0 C227.3292,0 219.560673,4.55454315 219.560673,10.1589471 C219.560673,13.1232599 221.725421,15.7787902 225.164452,17.6314857 C218.654857,18.4806378 213.77266,21.969881 213.77266,26.138446 C213.800587,27.0393189 214.048391,27.9194617 214.494243,28.7013414 C210.533215,30.8319413 208,34.0895976 208,37.7641104 C208.169569,40.9902093 209.887194,43.9323455 212.605846,45.6535054 C209.780927,47.1974184 208,49.6213617 208,52.2768919 C208,57.0939003 213.818719,61 221.003838,61 C228.188958,61 234.007676,57.0939003 234.007676,52.2768919 C234.007676,52.2768919 234.007676,52.168818 234.007676,52.1070615 C234.976069,52.2188262 235.949964,52.2755265 236.924712,52.2768919 C246.489519,52.2768919 254.258045,47.0739053 254.258045,40.6666667 C254.258045,37.1002278 251.863006,33.9197671 248.116918,31.7891673 C254.841453,31.0789674 260,27.5279676 260,23.2358896 Z" id="Shape" fill="#636161" opacity="0.598883929"></path>
        </g>
    </g>
</svg>