
<svg width="150px" height="36px" viewBox="0 0 150 36" version="1.1" xmlns="http://www.w3.org/2000/svg" xmlns:xlink="http://www.w3.org/1999/xlink">
    <g id="PROTOTYPE" stroke="none" stroke-width="1" fill="none" fill-rule="evenodd">
        <g id="Etter-tilbakemeldinger" transform="translate(-915.000000, -3588.000000)" fill="#F9F9F9" fill-rule="nonzero">
            <g id="Group-3" transform="translate(915.000000, 3588.000000)">
                <path d="M45.2205811,5.7855131 C45.2205811,6.93203849 44.9471724,7.94469462 44.2646784,8.65290616 C42.9088883,10.0903703 40.8017639,10.3893297 39.1314541,9.38120936 C37.4611443,8.37308906 36.6460459,6.31041378 37.1457703,4.35626869 C37.6454946,2.4021236 39.3348655,1.04600369 41.2612936,1.05258722 C41.8342453,1.05820354 42.3977955,1.20618284 42.9058575,1.48442352 C43.452675,1.77159466 43.8617602,2.05876581 44.1392804,2.48844293 L43.4567864,3.20529119 C42.9099689,2.48844293 42.2233635,2.20127179 41.2715721,2.20127179 C40.4353788,2.16441601 39.6297795,2.53490551 39.0884136,3.20529119 C38.4059196,3.77963347 38.1325108,4.63898772 38.1325108,5.64300712 C38.1325108,6.64702653 38.4059196,7.50638077 39.0884136,8.08072305 C39.7709076,8.65506534 40.4431231,9.09122 41.2612936,9.09122 C42.1375639,9.12958912 42.9858177,8.76263379 43.5821844,8.0872006 C44.0250164,7.63368331 44.2716613,7.00944232 44.2646784,6.35985539 L41.2612936,6.35985539 L41.2612936,5.20469327 L45.2205811,5.20469327 L45.2205811,5.77903556 L45.2205811,5.7855131 Z M51.5007595,2.1991126 L47.8148807,2.1991126 L47.8148807,4.92399968 L51.2355736,4.92399968 L51.2355736,5.92801908 L47.8231035,5.92801908 L47.8231035,8.6593837 L51.5089823,8.6593837 L51.5089823,9.80590909 L46.7233014,9.80590909 L46.7233014,1.1950932 L51.5007595,1.1950932 L51.5007595,2.1991126 Z M56.0048088,9.79943154 L54.9132295,9.79943154 L54.9132295,2.1991126 L52.5923388,2.1991126 L52.5923388,1.1950932 L58.3256996,1.1950932 L58.3256996,2.1991126 L56.0048088,2.1991126 L56.0048088,9.79943154 Z M62.2849871,9.79943154 L62.2849871,1.1950932 L63.3786221,1.1950932 L63.3786221,9.79943154 L62.2849871,9.79943154 Z M68.018348,9.79943154 L66.9267687,9.79943154 L66.9267687,2.1991126 L64.5976551,2.1991126 L64.5976551,1.1950932 L70.1953394,1.1950932 L70.1953394,2.1991126 L67.8867829,2.1991126 L67.8867829,9.79943154 L68.018348,9.79943154 Z M80.9877899,8.6593837 C79.550553,10.190478 77.2828424,10.4396572 75.5750266,9.25414557 C73.8672108,8.06863398 73.196538,5.7797221 73.974208,3.79077739 C74.751878,1.80183268 76.7605715,0.668664481 78.7687272,1.08603583 C80.776883,1.50340718 82.2233232,3.35468393 82.2212128,5.50481951 C82.2512757,6.69184269 81.8034583,7.83716638 80.9877899,8.6593837 Z M75.8012466,7.94253544 C76.3801214,8.55786594 77.1612886,8.91711928 77.9844051,8.94655484 C78.821191,8.9834296 79.6274233,8.61299779 80.1696194,7.94253544 C80.7825227,7.29463139 81.1262121,6.41816453 81.1255221,5.50481951 C81.1255221,4.5008001 80.8521134,3.63928668 80.1696194,3.06710357 C79.5904756,2.45089913 78.8083344,2.0915362 77.9844051,2.06308417 C77.1482118,2.0262284 76.3426125,2.39671789 75.8012466,3.06710357 C75.1883433,3.71500762 74.8446539,4.59147448 74.8453438,5.50481951 C74.8453438,6.50020218 75.1187526,7.36387479 75.8012466,7.93605789 L75.8012466,7.94253544 Z M83.7157103,9.79943154 L83.7157103,1.1950932 L84.9491332,1.1950932 L88.9084207,7.93605789 L88.9084207,1.1950932 L90,1.1950932 L90,9.79943154 L88.9084207,9.79943154 L84.6757244,2.77345489 L84.6757244,9.79943154 L83.7157103,9.79943154 Z" id="Shape"></path>
                <path d="M73.0643433,19.3972017 C69.8583557,19.3972017 67.3201146,21.8568755 67.3201146,25.2512254 C67.3087616,26.8073271 67.910309,28.3030528 68.9900317,29.4034132 C70.0697544,30.5037737 71.537427,31.1168191 73.0643433,31.1052491 C76.2703309,31.1052491 78.8065607,28.6455753 78.8065607,25.2512254 C78.8065607,21.7113448 76.2703309,19.3972017 73.0643433,19.3972017 Z M73.0643433,28.6537742 C71.3286047,28.6537742 69.8583557,27.1574726 69.8583557,25.1159433 C69.8583557,23.074414 71.3286047,21.5760627 73.0643433,21.5760627 C74.8000819,21.5760627 76.2703309,22.9370823 76.2703309,25.1159433 C76.2703309,27.1574726 74.8000819,28.6537742 73.0643433,28.6537742 Z M60.6426499,19.3972017 C57.4366623,19.3972017 54.8984212,21.8568755 54.8984212,25.2512254 C54.8870682,26.8073271 55.4886156,28.3030528 56.5683383,29.4034132 C57.648061,30.5037737 59.1157336,31.1168191 60.6426499,31.1052491 C63.8486375,31.1052491 66.3848673,28.6455753 66.3848673,25.2512254 C66.3848673,21.7113448 63.8486375,19.3972017 60.6426499,19.3972017 Z M60.6426499,28.6537742 C58.9049001,28.6537742 57.4366623,27.1574726 57.4366623,25.1159433 C57.4366623,23.074414 58.9049001,21.5760627 60.6426499,21.5760627 C62.3803998,21.5760627 63.8486375,22.9370823 63.8486375,25.1159433 C63.8486375,27.1574726 62.3783885,28.6537742 60.6426499,28.6537742 Z M45.8154602,21.1681668 L45.8154602,23.617592 L51.5596889,23.617592 C51.4249328,24.9786115 50.8919424,26.0670172 50.2241959,26.747527 C49.4196821,27.5674182 48.0862005,28.5184921 45.8154602,28.5184921 C42.209227,28.5184921 39.5382411,25.6591213 39.5382411,21.9839586 C39.5382411,18.308796 42.3540395,15.4494252 45.8154602,15.4494252 C47.4490625,15.4654187 49.0192294,16.0961462 50.2241959,17.2203903 L51.9599345,15.4494252 C50.4916968,14.0884057 48.6212021,13 45.9502163,13 C41.1412349,13 37,17.0830586 37,21.9839586 C37,26.8848587 41.1412349,30.9679173 45.9502163,30.9679173 C48.6212021,30.9679173 50.4916968,30.148026 52.0946906,28.3811603 C53.7037182,26.7413778 54.2306748,24.4333838 54.2306748,22.6644684 C54.2588022,22.1617636 54.2140733,21.6575787 54.09793,21.1681668 L45.8154602,21.1681668 Z M106.455689,23.0703146 C105.922699,21.7092951 104.587206,19.3951519 101.648719,19.3951519 C98.7102326,19.3951519 96.3047363,21.7092951 96.3047363,25.2491757 C96.3047363,28.5164424 98.7182778,31.1031994 101.914209,31.1031994 C104.45245,31.1031994 106.055444,29.4634168 106.590446,28.5164424 L104.719951,27.1554229 C104.052204,28.1085465 103.249702,28.7952054 101.904153,28.7952054 C100.558603,28.7952054 99.7681683,28.2499777 99.1004218,27.0242403 L106.713134,23.7569735 L106.455689,23.0703146 Z M98.7102326,24.9765618 C98.7102326,22.7997505 100.445971,21.574013 101.648719,21.574013 C102.581955,21.574013 103.517203,22.117191 103.784704,22.8038499 L98.7102326,24.9806613 L98.7102326,24.9765618 Z M92.4310023,30.5600214 L94.9692434,30.5600214 L94.9692434,13.5472774 L92.4310023,13.5472774 L92.4310023,30.5600214 Z M88.4245234,20.6229391 C87.6170533,19.7741156 86.5131312,19.2849114 85.3532919,19.2619196 C82.54755,19.2619196 79.8765641,21.8486766 79.8765641,25.1159433 C79.8556297,26.6151587 80.4216621,28.0610965 81.4494596,29.1339272 C82.477257,30.2067578 83.8821156,30.818066 85.3532919,30.8326352 C86.4814804,30.8412277 87.5562202,30.3434402 88.2917787,29.4716157 L88.4245234,29.4716157 L88.4245234,30.291507 C88.4245234,32.4703681 87.2177527,33.6940558 85.3532919,33.6940558 C84.0840976,33.6928068 82.9562732,32.8688774 82.54755,31.6443276 L80.4095545,32.5974512 C81.077301,34.0958025 82.6802948,36 85.4860367,36 C88.4245234,36 90.8280085,34.2310846 90.8280085,30.0106942 L90.8280085,19.6698155 L88.4245234,19.6698155 L88.4245234,20.6229391 Z M85.4920706,28.6537742 C83.756332,28.6537742 82.286083,27.1574726 82.286083,25.1159433 C82.286083,23.074414 83.756332,21.5760627 85.4920706,21.5760627 C87.2278091,21.5760627 88.5572682,23.0703146 88.5572682,25.1200428 C88.5572682,27.169771 87.2217753,28.6537742 85.4920706,28.6537742 Z M118.07488,13.5452277 L112.065162,13.5452277 L112.065162,30.5579717 L114.603403,30.5579717 L114.603403,24.1628197 L118.07488,24.1628197 C120.890679,24.1628197 123.551608,22.1130915 123.551608,18.8540237 C123.551608,15.5949559 120.890679,13.5452277 118.07488,13.5452277 Z M118.207625,21.7113448 L114.603403,21.7113448 L114.603403,15.8593569 L118.209636,15.8593708 C119.782554,15.8545277 121.079086,17.1152472 121.148123,18.7166919 C121.015378,20.2150432 119.941352,21.7113448 118.209636,21.7113448 L118.207625,21.7113448 Z M133.561771,19.2619196 C131.693288,19.2619196 129.822793,20.0818109 129.155047,21.8486766 L131.425787,22.8018002 C131.960789,21.8486766 132.76128,21.5719633 133.696527,21.5719633 C135.03202,21.5719633 136.234769,22.3918546 136.367513,23.7487746 L136.367513,23.8902059 C135.590965,23.4496605 134.718014,23.2156199 133.829272,23.2096961 C131.415731,23.2096961 129.022302,24.5707156 129.022302,27.0201408 C129.022302,29.3342839 131.033587,30.8326352 133.161526,30.8326352 C134.899276,30.8326352 135.699767,30.012744 136.367513,29.1928527 L136.500258,29.1928527 L136.500258,30.5538722 L138.9138,30.5538722 L138.9138,24.0254879 C138.646299,21.030835 136.37757,19.2619196 133.561771,19.2619196 Z M133.296282,28.6537742 C132.491768,28.6537742 131.284997,28.2438285 131.284997,27.1574726 C131.284997,25.7964531 132.755246,25.3865074 133.957994,25.3865074 C135.025987,25.3865074 135.567022,25.6591213 136.228735,25.9317351 C135.975313,27.5653685 134.63982,28.6537742 133.304327,28.6537742 L133.296282,28.6537742 Z M147.320969,19.6698155 L144.505171,27.0201408 L144.372426,27.0201408 L141.433939,19.6698155 L138.779043,19.6698155 L143.187779,30.0147937 L140.649538,35.7314856 L143.187779,35.7314856 L150,19.6698155 L147.320969,19.6698155 Z M124.889112,30.5600214 L127.427353,30.5600214 L127.427353,13.5472774 L124.889112,13.5472774 L124.889112,30.5600214 Z" id="Shape"></path>
                <path d="M0.586204674,0.512256178 C1.23115765,-0.106076577 2.11354116,-0.208464448 3.24741434,0.447700115 L22.2563204,11.744516 L22.246522,11.744516 L22.1896912,11.8039514 L22.2563204,11.8736342 L28.6331225,15.6856947 C30.4556258,16.7739765 30.4556258,18.5426906 28.6331225,19.6309724 L22.1269814,23.3118652 L22.0944342,23.2778013 L3.25721275,34.6066316 C2.09316221,35.1517973 1.17603149,35.1517973 0.525417386,34.471365 L0.652796654,34.3381478 C0.207942011,33.8149882 -0.0253185049,33.1316313 0.00218254986,32.4321176 L0.00218254986,2.35168088 C0.00218254986,1.53598191 0.131521498,0.857599095 0.523457705,0.447700115 L0.586204674,0.512256178 Z" id="Combined-Shape"></path>
            </g>
        </g>
    </g>
</svg>