
<svg width="150px" height="44px" viewBox="0 0 150 44" version="1.1" xmlns="http://www.w3.org/2000/svg" xmlns:xlink="http://www.w3.org/1999/xlink">
    <g id="Page-1" stroke="none" stroke-width="1" fill="none" fill-rule="evenodd">
        <g id="forside-copy-20" transform="translate(-838.000000, -2757.000000)" fill-rule="nonzero">
            <g id="Group-6" transform="translate(838.000000, 2757.000000)">
                <path d="M149.733155,38.8247249 C149.733155,41.1973173 147.809789,43.1206834 145.437196,43.1206834 L4.5446284,43.1206834 C2.16811632,43.1243369 0.23835792,41.2012354 0.23379928,38.8247249 L0.23379928,4.53967152 C0.238352623,2.16155762 2.16651083,0.235616535 4.5446284,0.23379928 L145.427283,0.23379928 C147.799875,0.23379928 149.723241,2.15716541 149.723241,4.52975777 L149.723241,38.8148111 L149.733155,38.8247249 Z" id="Shape" fill="#FFFFFF"></path>
                <g id="Group-5">
                    <path d="M149.733155,38.8247249 C149.733155,41.1973173 147.809789,43.1206834 145.437196,43.1206834 L4.5446284,43.1206834 C2.16811632,43.1243369 0.23835792,41.2012354 0.23379928,38.8247249 L0.23379928,4.53967152 C0.238352623,2.16155762 2.16651083,0.235616535 4.5446284,0.23379928 L145.427283,0.23379928 C147.799875,0.23379928 149.723241,2.15716541 149.723241,4.52975777 L149.723241,38.8148111 L149.733155,38.8247249 Z" id="Shape" fill="#9D9D9D"></path>
                    <path d="M52.7748772,12.8182399 C52.7748772,13.6956068 52.5551224,14.4705316 52.0065616,15.0124833 C50.9168328,16.1124882 49.2232121,16.3412638 47.8806852,15.56981 C46.5381583,14.7983561 45.8830155,13.2199148 46.2846735,11.7245251 C46.6863316,10.2291355 48.044179,9.19137847 49.5925633,9.19641645 C50.0530786,9.20071429 50.5060372,9.31395394 50.9143967,9.5268748 C51.3539063,9.7466296 51.6827124,9.96638439 51.9057718,10.2951904 L51.3572109,10.8437513 C50.9177013,10.2951904 50.3658359,10.0754356 49.6008248,10.0754356 C48.9287267,10.0472321 48.2812189,10.3307455 47.846091,10.8437513 C47.2975301,11.2832609 47.0777753,11.940873 47.0777753,12.7091887 C47.0777753,13.4775043 47.2975301,14.1351164 47.846091,14.574626 C48.3946518,15.0141356 48.9349512,15.3478986 49.5925633,15.3478986 C50.2968737,15.3772601 50.9786655,15.0964513 51.4580007,14.5795829 C51.8139311,14.2325334 52.0121741,13.7548393 52.0065616,13.2577495 L49.5925633,13.2577495 L49.5925633,12.3737734 L52.7748772,12.3737734 L52.7748772,12.813283 L52.7748772,12.8182399 Z M57.8226284,10.0737834 L54.8600694,10.0737834 L54.8600694,12.1589755 L57.6094828,12.1589755 L57.6094828,12.9272912 L54.8666785,12.9272912 L54.8666785,15.0174402 L57.8292376,15.0174402 L57.8292376,15.8948071 L53.9827025,15.8948071 L53.9827025,9.3054677 L57.8226284,9.3054677 L57.8226284,10.0737834 Z M61.4427996,15.8898502 L60.5654327,15.8898502 L60.5654327,10.0737834 L58.6999954,10.0737834 L58.6999954,9.3054677 L63.308237,9.3054677 L63.308237,10.0737834 L61.4427996,10.0737834 L61.4427996,15.8898502 Z M66.4905509,15.8898502 L66.4905509,9.3054677 L67.3695701,9.3054677 L67.3695701,15.8898502 L66.4905509,15.8898502 Z M71.0987925,15.8898502 L70.2214256,15.8898502 L70.2214256,10.0737834 L68.3493791,10.0737834 L68.3493791,9.3054677 L72.8485694,9.3054677 L72.8485694,10.0737834 L70.9930458,10.0737834 L70.9930458,15.8898502 L71.0987925,15.8898502 Z M81.523101,15.0174402 C80.3679086,16.1890946 78.5452153,16.3797764 77.1725426,15.4725757 C75.7998699,14.565375 75.2608104,12.8138084 75.8858699,11.2917887 C76.5109293,9.76976893 78.1254352,8.90262347 79.7395089,9.22201266 C81.3535826,9.54140185 82.5161723,10.9580726 82.514476,12.603442 C82.5386393,13.5117994 82.178702,14.3882468 81.523101,15.0174402 Z M77.354369,14.4688794 C77.819645,14.9397548 78.4475153,15.2146697 79.1091028,15.237195 C79.7816772,15.265413 80.4296938,14.9819439 80.8654889,14.4688794 C81.3581156,13.9730774 81.6343591,13.30237 81.6338045,12.603442 C81.6338045,11.8351263 81.4140497,11.1758619 80.8654889,10.7380046 C80.3999968,10.2664604 79.7713435,9.99146161 79.1091028,9.96968898 C78.4370047,9.94148547 77.7894969,10.2249988 77.354369,10.7380046 C76.8617423,11.2338066 76.5854988,11.904514 76.5860533,12.603442 C76.5860533,13.3651485 76.8058081,14.0260652 77.354369,14.4639225 L77.354369,14.4688794 Z M83.7156921,15.8898502 L83.7156921,9.3054677 L84.7070672,9.3054677 L87.889381,14.4639225 L87.889381,9.3054677 L88.7667479,9.3054677 L88.7667479,15.8898502 L87.889381,15.8898502 L84.4873124,10.513293 L84.4873124,15.8898502 L83.7156921,15.8898502 Z" id="Shape" fill="#F9F7F5"></path>
                    <path d="M75.464294,24.0614983 C72.830541,24.0614983 70.7453488,26.0442484 70.7453488,28.7804435 C70.7360222,30.0348215 71.2301998,31.2405302 72.1172035,32.1275339 C73.0042072,33.0145376 74.209916,33.5087153 75.464294,33.4993887 C78.098047,33.4993887 80.1815869,31.5166386 80.1815869,28.7804435 C80.1815869,25.9269357 78.098047,24.0614983 75.464294,24.0614983 Z M75.464294,31.5232477 C74.0383662,31.5232477 72.830541,30.3170748 72.830541,28.6713922 C72.830541,27.0257097 74.0383662,25.8178844 75.464294,25.8178844 C76.8902217,25.8178844 78.098047,26.9150061 78.098047,28.6713922 C78.098047,30.3170748 76.8902217,31.5232477 75.464294,31.5232477 Z M65.2597403,24.0614983 C62.6259872,24.0614983 60.5407951,26.0442484 60.5407951,28.7804435 C60.5314685,30.0348215 61.0256461,31.2405302 61.9126498,32.1275339 C62.7996535,33.0145376 64.0053623,33.5087153 65.2597403,33.4993887 C67.8934933,33.4993887 69.9770331,31.5166386 69.9770331,28.7804435 C69.9770331,25.9269357 67.8934933,24.0614983 65.2597403,24.0614983 Z M65.2597403,31.5232477 C63.8321602,31.5232477 62.6259872,30.3170748 62.6259872,28.6713922 C62.6259872,27.0257097 63.8321602,25.8178844 65.2597403,25.8178844 C66.6873203,25.8178844 67.8934933,26.9150061 67.8934933,28.6713922 C67.8934933,30.3170748 66.685668,31.5232477 65.2597403,31.5232477 Z M53.0790456,25.4890784 L53.0790456,27.463567 L57.7979908,27.463567 C57.6872873,28.5606887 57.24943,29.4380556 56.7008691,29.9866164 C56.0399524,30.6475331 54.944483,31.4141965 53.0790456,31.4141965 C50.1164866,31.4141965 47.9222432,29.1092495 47.9222432,26.1466905 C47.9222432,23.1841314 50.2354516,20.8791844 53.0790456,20.8791844 C54.4210674,20.8920769 55.7109762,21.4005081 56.7008691,22.3067645 L58.1267969,20.8791844 C56.9206239,19.7820627 55.3839926,18.9046958 53.1897492,18.9046958 C49.2391197,18.9046958 45.837051,22.1960609 45.837051,26.1466905 C45.837051,30.09732 49.2391197,33.3886851 53.1897492,33.3886851 C55.3839926,33.3886851 56.9206239,32.7277684 58.2375004,31.3034929 C59.5593338,29.9816596 59.9922342,28.1211791 59.9922342,26.6952513 C60.0153412,26.2900195 59.9785959,25.8835947 59.883183,25.4890784 L53.0790456,25.4890784 Z M102.895641,27.0224051 C102.457784,25.9252834 101.360662,24.059846 98.946664,24.059846 C96.5326658,24.059846 94.5565249,25.9252834 94.5565249,28.7787912 C94.5565249,31.4125442 96.539275,33.4977364 99.1647665,33.4977364 C101.249959,33.4977364 102.566835,32.175903 103.006345,31.4125442 L101.469713,30.3154225 C100.921153,31.0837381 100.261888,31.6372559 99.1565051,31.6372559 C98.0511219,31.6372559 97.4017713,31.1977463 96.8532104,30.2096758 L103.107135,27.5759228 L102.895641,27.0224051 Z M96.5326658,28.5590364 C96.5326658,26.8043026 97.9585936,25.8162321 98.946664,25.8162321 C99.7133274,25.8162321 100.481643,26.2540894 100.701398,26.8076072 L96.5326658,28.562341 L96.5326658,28.5590364 Z M91.374211,33.0598791 L93.4594032,33.0598791 L93.4594032,19.3458577 L91.374211,19.3458577 L91.374211,33.0598791 Z M88.0828459,25.0495688 C87.4195006,24.3653297 86.5126168,23.9709808 85.5597964,23.952447 C83.2548495,23.952447 81.0606061,26.0376392 81.0606061,28.6713922 C81.0434082,29.879914 81.5084099,31.0454886 82.3527565,31.9103005 C83.1971031,32.7751123 84.3512094,33.2678895 85.5597964,33.2796339 C86.4866153,33.2865602 87.3695255,32.8852923 87.9737947,32.1825121 L88.0828459,32.1825121 L88.0828459,32.8434288 C88.0828459,34.5998149 87.0914709,35.5862331 85.5597964,35.5862331 C84.5171397,35.5852263 83.59062,34.9210544 83.2548495,33.9339414 L81.4984634,34.702257 C82.0470242,35.9100823 83.3639007,37.4450613 85.6688477,37.4450613 C88.0828459,37.4450613 90.0573345,36.0191335 90.0573345,32.6170649 L90.0573345,24.2812531 L88.0828459,24.2812531 L88.0828459,25.0495688 Z M85.6738046,31.5232477 C84.2478768,31.5232477 83.0400516,30.3170748 83.0400516,28.6713922 C83.0400516,27.0257097 84.2478768,25.8178844 85.6738046,25.8178844 C87.0997323,25.8178844 88.1918972,27.0224051 88.1918972,28.6746968 C88.1918972,30.3269885 87.0947755,31.5232477 85.6738046,31.5232477 Z M112.440931,19.3442054 L107.503883,19.3442054 L107.503883,33.0582268 L109.589075,33.0582268 L109.589075,27.9030766 L112.440931,27.9030766 C114.754139,27.9030766 116.940121,26.2507848 116.940121,23.623641 C116.940121,20.9964971 114.754139,19.3442054 112.440931,19.3442054 Z M112.549982,25.9269357 L109.589075,25.9269357 L109.589075,21.2096316 L112.551634,21.2096428 C113.843803,21.2057387 114.908917,22.2220083 114.965632,23.5129374 C114.856581,24.7207627 113.974257,25.9269357 112.551634,25.9269357 L112.549982,25.9269357 Z M125.163577,23.952447 C123.628598,23.952447 122.091967,24.6133637 121.543406,26.0376392 L123.408843,26.8059549 C123.848353,26.0376392 124.505965,25.8145798 125.27428,25.8145798 C126.371402,25.8145798 127.359473,26.4754965 127.468524,27.5693136 L127.468524,27.6833218 C126.830581,27.3281969 126.113443,27.1395361 125.383332,27.1347609 C123.400582,27.1347609 121.434354,28.2318826 121.434354,30.2063712 C121.434354,32.0718086 123.086646,33.2796339 124.834771,33.2796339 C126.262351,33.2796339 126.919963,32.6187172 127.468524,31.9578005 L127.577575,31.9578005 L127.577575,33.0549222 L129.560325,33.0549222 L129.560325,27.792373 C129.34057,25.3783748 127.476785,23.952447 125.163577,23.952447 Z M124.945474,31.5232477 C124.284558,31.5232477 123.293183,31.1927894 123.293183,30.3170748 C123.293183,29.2199531 124.501008,28.8894947 125.489078,28.8894947 C126.366445,28.8894947 126.810912,29.1092495 127.354516,29.3290043 C127.146327,30.6458808 126.049205,31.5232477 124.952084,31.5232477 L124.945474,31.5232477 Z M136.466905,24.2812531 L134.153696,30.2063712 L134.044645,30.2063712 L131.630647,24.2812531 L129.449622,24.2812531 L133.071445,32.6203695 L130.986253,37.2286111 L133.071445,37.2286111 L138.667757,24.2812531 L136.466905,24.2812531 Z M118.038895,33.0598791 L120.124087,33.0598791 L120.124087,19.3458577 L118.038895,19.3458577 L118.038895,33.0598791 Z" id="Shape" fill="#F9F7F5"></path>
                    <path d="M15.5986793,8.41254857 C16.142467,7.91405204 16.8864427,7.83150749 17.8424601,8.36050382 L33.8696899,17.4679358 L33.8614285,17.4679358 L33.813512,17.5158523 L33.8696899,17.5720302 L39.2462472,20.6452928 C40.7828785,21.5226597 40.7828785,22.9485875 39.2462472,23.8259544 L33.7606387,26.7934703 L33.7331967,26.7660082 L17.8507216,35.8992501 C16.8692603,36.3387597 16.0959878,36.3387597 15.5474269,35.7901988 L15.6548259,35.6827998 C15.2797497,35.2610314 15.0830777,34.7101128 15.106265,34.1461685 L15.106265,9.89548284 C15.106265,9.23787073 15.2153163,8.69096217 15.5457746,8.36050382 L15.5986793,8.41254857 Z" id="Combined-Shape" fill="#F9F7F5"></path>
                </g>
            </g>
        </g>
    </g>
</svg>