
<svg width="43px" height="44px" viewBox="0 0 43 44" version="1.1" xmlns="http://www.w3.org/2000/svg" xmlns:xlink="http://www.w3.org/1999/xlink">
    <g id="PROTOTYPE" stroke="none" stroke-width="1" fill="none" fill-rule="evenodd">
        <g id="Group-24-Copy-5" transform="translate(-0.202645, 0.458262)" fill="#000000" fill-rule="nonzero">
            <path d="M21.703617,4.68157702 C30.9839113,4.68157702 38.4827205,12.2218161 38.4827205,21.4606805 C38.4827205,30.6995449 30.9839113,38.239784 21.703617,38.239784 C12.4647526,38.239784 4.96594344,30.6995449 4.96594344,21.4606805 C4.96594344,12.1803862 12.4647526,4.68157702 21.703617,4.68157702 Z M21.703617,-1.05515596e-12 C9.85466988,-1.05515596e-12 0.242936531,9.57030346 0.242936531,21.4606805 C0.242936531,33.3096276 9.85466988,42.921361 21.703617,42.921361 C33.5525642,42.921361 43.1642975,33.3096276 43.1642975,21.4606805 C43.1642975,9.61173335 33.5525642,-1.05515596e-12 21.703617,-1.05515596e-12 Z" id="Shape-Copy-17"></path>
            <path d="M40.3041774,20.6192243 L39.2508463,15.39192 C39.0676582,14.7958239 38.8386732,14.1997278 38.5638912,13.6494853 L25.9239174,18.9226431 L35.5870857,9.20169133 C35.1291157,8.74315587 34.6711456,8.28462041 34.2131756,7.82608495 L29.7708659,4.84560446 C29.1755048,4.57048318 28.5801438,4.29536191 27.9847827,4.06609418 L22.7639239,16.7675264 L22.7639239,3.05731616 C22.4433449,3.01146262 22.1227658,3.01146262 21.8021868,3.01146262 C21.4816077,3.01146262 21.1610287,3.01146262 20.8404497,3.01146262 L15.6195909,4.06609418 C15.0242298,4.29536191 14.4288687,4.52462964 13.8335077,4.79975091 L19.0543664,17.4553296 L9.39119802,7.7802314 C8.93322796,8.19291332 8.47525789,8.65144878 8.01728783,9.15583779 L5.0404824,13.6036318 C4.76570036,14.1538743 4.53671533,14.7499704 4.3535273,15.3460665 L16.9935011,20.6192243 L3.25439915,20.6192243 C3.25439915,20.9401991 3.25439915,21.2611739 3.25439915,21.5821488 C3.25439915,21.9031236 3.25439915,22.1782449 3.25439915,22.5450732 L4.3077303,27.818231 C4.53671533,28.4143271 4.76570036,29.0104232 5.0404824,29.5606658 L17.6804562,24.287508 L8.01728783,33.9626062 C8.42946088,34.4669952 8.88743095,34.9255307 9.39119802,35.3382126 L13.8335077,38.3186931 C14.3830717,38.5479608 14.9784328,38.8230821 15.6195909,39.0523498 L20.8404497,26.3967711 L20.8404497,40.1069814 C21.1610287,40.1528349 21.4816077,40.1528349 21.8021868,40.1528349 C22.1227658,40.1528349 22.4433449,40.1528349 22.7639239,40.1069814 L27.9847827,39.0523498 C28.5801438,38.8689356 29.1755048,38.5938143 29.7708659,38.3186931 L24.5500072,25.6172608 L34.2131756,35.3382126 C34.7169426,34.9255307 35.1291157,34.4669952 35.5870857,33.9626062 L38.5638912,29.5606658 C38.8386732,29.0104232 39.0676582,28.3684736 39.2966433,27.7723775 L26.6566695,22.4992197 L40.3499744,22.4992197 C40.3957714,22.1782449 40.3957714,21.85727 40.3957714,21.5362952 C40.3499744,21.2611739 40.3499744,20.9401991 40.3041774,20.6192243 Z" id="Shape-Copy-18"></path>
        </g>
    </g>
</svg>