
<svg width="1440px" height="669px" viewBox="0 0 1440 669" version="1.1" xmlns="http://www.w3.org/2000/svg" xmlns:xlink="http://www.w3.org/1999/xlink">
    <defs>
        <linearGradient x1="61.089879%" y1="106.296212%" x2="44.3404268%" y2="-9.39379029%" id="linearGradient-1">
            <stop stop-color="#9DC6D5" offset="0%"></stop>
            <stop stop-color="#7DA6B6" offset="23.2893001%"></stop>
            <stop stop-color="#628C9C" offset="56.1842011%"></stop>
            <stop stop-color="#40697B" offset="100%"></stop>
        </linearGradient>
        <filter x="-13.4%" y="-11.6%" width="126.9%" height="123.2%" filterUnits="objectBoundingBox" id="filter-2">
            <feOffset dx="0" dy="-4" in="SourceAlpha" result="shadowOffsetOuter1"></feOffset>
            <feGaussianBlur stdDeviation="5" in="shadowOffsetOuter1" result="shadowBlurOuter1"></feGaussianBlur>
            <feColorMatrix values="0 0 0 0 0.327779549   0 0 0 0 0.327779549   0 0 0 0 0.327779549  0 0 0 0.5 0" type="matrix" in="shadowBlurOuter1" result="shadowMatrixOuter1"></feColorMatrix>
            <feMerge>
                <feMergeNode in="shadowMatrixOuter1"></feMergeNode>
                <feMergeNode in="SourceGraphic"></feMergeNode>
            </feMerge>
        </filter>
    </defs>
    <g id="PROTOTYPE" stroke="none" stroke-width="1" fill="none" fill-rule="evenodd">
        <g id="Etter-tilbakemeldinger" fill-rule="nonzero">
            <rect id="Rectangle-15" fill="url(#linearGradient-1)" x="0" y="0" width="1440" height="662"></rect>
            <path d="M0,555.605096 C143.621622,545.210191 298.621622,545.210191 465,555.605096 C714.567568,571.197452 775.824324,613.082803 967.5,614 C1095.28378,614.611465 1252.78378,582.611465 1440,518 L1440,662 L0,662 L0,555.605096 Z" id="Rectangle" fill="#88A494"></path>
            <g id="Group-2-Copy" transform="translate(1211.000000, 469.000000)">
                <path d="M64.242679,92.68441 L64.242679,100.55401 C64.2072943,104.375434 65.0025326,108.160343 66.5753591,111.65632 C68.222582,115.139806 66.5753591,120 63.7431985,120 L56.7239036,120 L56.6496986,119.378234 C56.317987,119.657868 55.9496406,119.855236 55.5523321,119.947895 L55.5523321,120 L48.5068656,120 L41.4875707,120 C38.6554101,120 37.0081872,115.127389 38.6554101,111.620151 C40.229441,108.117686 41.0246486,104.326545 40.9880902,100.499131 L40.9880902,57 L49.2051282,57 L64.242679,57 L64.242679,80.564727 C64.7192969,79.6121486 65.2330199,78.6969054 65.7826711,77.8235286 L72.9222984,66.4984305 C73.6260616,65.3758412 74.768402,65.3758412 75.4721653,66.4984305 C76.1759449,67.7529103 76.1759449,69.2957147 75.4721653,70.5501945 L68.332538,81.8752926 C66.4035094,84.9435837 65.0151295,88.6485486 64.242679,92.68441 Z" id="Combined-Shape" fill="#947C50"></path>
                <circle id="Oval" fill="#457459" cx="44.5" cy="9.5" r="9.5"></circle>
                <circle id="Oval" fill="#457459" cx="12" cy="31" r="12"></circle>
                <ellipse id="Oval" fill="#3E6A51" cx="60" cy="17.5" rx="17" ry="17.5"></ellipse>
                <ellipse id="Oval" fill="#457459" cx="84" cy="32.5" rx="20" ry="19.5"></ellipse>
                <circle id="Oval" fill="#3E6A51" cx="78" cy="60" r="17"></circle>
                <circle id="Oval" fill="#3E6A51" cx="36" cy="34" r="26"></circle>
                <ellipse id="Oval" fill="#457459" cx="31" cy="51.5" rx="21" ry="20.5"></ellipse>
                <circle id="Oval" fill="#457459" cx="59.5" cy="48.5" r="15.5"></circle>
            </g>
            <g id="Group-2" filter="url(#filter-2)" transform="translate(894.000000, 430.000000)">
                <path d="M123.413568,179.669562 L123.413568,195.03402 C123.345592,202.494894 124.873286,209.884478 127.894769,216.709958 C131.059171,223.51105 127.894769,233 122.454039,233 L108.969604,233 L108.827053,231.786077 C108.189817,232.332027 107.482204,232.717366 106.718954,232.898271 L106.718954,233 L93.1842419,233 L79.6998069,233 C74.2590773,233 71.0946755,223.486806 74.2590773,216.639342 C77.2828734,209.801196 78.8105092,202.399444 78.7402786,194.926876 L78.7402786,110 L94.525641,110 L123.413568,110 L123.413568,156.007324 C124.329176,154.147528 125.316065,152.360625 126.371973,150.655461 L140.087573,128.544555 C141.439539,126.352833 143.634035,126.352833 144.986002,128.544555 C146.337999,130.993777 146.337999,134.005919 144.986002,136.455142 L131.270402,158.566047 C127.564637,164.556521 124.897486,171.790023 123.413568,179.669562 Z" id="Combined-Shape" fill="#947C50"></path>
                <ellipse id="Oval" fill="#457459" cx="87.5" cy="17" rx="17.5" ry="17"></ellipse>
                <circle id="Oval" fill="#457459" cx="23.5" cy="58.5" r="23.5"></circle>
                <ellipse id="Oval" fill="#3E6A51" cx="117.5" cy="33" rx="32.5" ry="33"></ellipse>
                <circle id="Oval" fill="#457459" cx="163" cy="62" r="38"></circle>
                <circle id="Oval" fill="#3E6A51" cx="150.5" cy="116.5" r="32.5"></circle>
                <ellipse id="Oval" fill="#3E6A51" cx="71.5" cy="66" rx="50.5" ry="51"></ellipse>
                <ellipse id="Oval" fill="#457459" cx="58.5" cy="99" rx="39.5" ry="40"></ellipse>
                <circle id="Oval" fill="#457459" cx="114.5" cy="93.5" r="30.5"></circle>
            </g>
        </g>
    </g>
</svg>