
<svg width="170px" height="85px" viewBox="0 0 170 85" version="1.1" xmlns="http://www.w3.org/2000/svg" xmlns:xlink="http://www.w3.org/1999/xlink">
    <g id="PROTOTYPE" stroke="none" stroke-width="1" fill="none" fill-rule="evenodd">
        <g id="Etter-tilbakemeldinger" transform="translate(-617.000000, -4543.000000)">
            <g id="logo-copy-6" transform="translate(617.000000, 4543.000000)">
                <path d="M84,0 C75.3619292,0.262565142 66.9903649,3.07446324 59.9235669,8.08695652 C54.6163362,11.9098539 50.228246,16.884272 47.0828025,22.6434783 L0,22.6434783 L12.3057325,36.1217391 L42.8025478,36.1217391 C42.0878106,40.2236991 42.0878106,44.4197791 42.8025478,48.5217391 L24.611465,48.5217391 L37.4522293,62 L63.133758,62 C59.8591729,58.7011417 57.4664109,54.6208326 56.1783439,50.1391304 C54.8419576,45.1973416 54.8419576,39.9852671 56.1783439,35.0434783 C57.6933742,29.6644761 60.6562412,24.8129347 64.7388535,21.026087 C72.3256051,13.9904348 81.1910828,13.1062609 84,12.9391304 L84,0 Z" id="Path" fill="#FF0000"></path>
                <path d="M80.7681159,34.7937318 L80.7681159,24.1232126 C83.9092861,22.6255958 87.5399893,22.6255958 90.6811594,24.1232126 L90.6811594,34.7937318 L100.043478,29.7392753 C102.903512,31.5955085 104.73978,34.7164268 105,38.1633695 L96.1884058,43.217826 L105,48.8338888 C104.561814,52.3742155 102.782872,55.5992679 100.043478,57.8195892 L91.2318841,52.2035264 L91.2318841,62.8740457 C87.8993064,64.3753181 84.1006936,64.3753181 80.7681159,62.8740457 L80.7681159,52.2035264 L71.9565217,57.8195892 C69.3827262,55.6947157 67.6273627,52.7113036 67,49.395495 L76.3623188,43.7794323 L67,38.1633695 C67.2602199,34.7164268 69.0964884,31.5955085 71.9565217,29.7392753 L80.7681159,34.7937318 Z" id="Path" fill="#2E3192"></path>
                <path d="M86,85 C94.6380708,84.7374349 103.009635,81.9255368 110.076433,76.9130435 C115.383664,73.0901461 119.771754,68.115728 122.917197,62.3565217 L132.012739,62.3565217 L144.853503,48.8782609 L127.197452,48.8782609 C127.912189,44.7763009 127.912189,40.5802209 127.197452,36.4782609 L157.159236,36.4782609 L170,23 L106.866242,23 C110.140827,26.2988583 112.533589,30.3791674 113.821656,34.8608696 C115.158042,39.8026584 115.158042,45.0147329 113.821656,49.9565217 C112.306626,55.3355239 109.343759,60.1870653 105.261146,63.973913 C97.6743949,71.0095652 88.8089172,71.8937391 86,72.0608696 L86,85 Z" id="Path" fill="#2E3192"></path>
                <path d="M83.881205,33 L85.6436149,33 L85.6436149,36.6944444 C86.6922487,37.7957407 87.1328512,38.6753704 86.9654223,39.3333333 C86.7583391,40.1408333 85.7493595,40.1566667 85.6436149,40.9166667 C85.5070281,41.8983333 87.1020091,42.5738889 86.9654223,43.5555556 C86.8552717,44.3472222 85.7537655,44.3472222 85.6436149,45.1388889 C85.5114341,46.0941667 87.0138886,46.7222222 86.9654223,47.7777778 C86.9389861,48.3337037 86.4983837,48.8614815 85.6436149,49.3611111 L85.6436149,52 L83.881205,52 L83.881205,47.25 C83.4758507,46.8911111 83,46.3369444 83,45.6666667 C83,44.7694444 83.881205,44.4791667 83.881205,43.5555556 C83.881205,42.6319444 83,42.405 83,41.4444444 C83,40.4838889 83.881205,40.2780556 83.881205,39.3333333 C83.881205,38.3886111 83,38.1194444 83,37.2222222 C83,36.5519444 83.4758507,35.9977778 83.881205,35.6388889 L83.881205,33 Z" id="Path" fill="#FFFFFF"></path>
            </g>
        </g>
    </g>
</svg>