

<svg width="38px" height="29px" viewBox="0 0 38 29" version="1.1" xmlns="http://www.w3.org/2000/svg" xmlns:xlink="http://www.w3.org/1999/xlink">
    <g id="Page-1" stroke="none" stroke-width="1" fill="none" fill-rule="evenodd">
        <g id="forside-copy-20" transform="translate(-33.000000, -631.000000)" fill="#636161" fill-rule="nonzero">
            <path d="M65.6503922,642.150067 C65.6503922,640.213848 63.6929077,638.553003 60.8851132,637.778515 C61.754902,637.038396 62.2736694,635.98371 62.3200114,634.861279 C62.3200114,631.737513 57.838169,629.198915 52.3200114,629.198915 C46.8018537,629.198915 42.3200114,631.737513 42.3200114,634.861279 C42.3200114,636.513519 43.5689042,637.993651 45.5529609,639.026301 C41.797425,639.499598 38.9807731,641.444423 38.9807731,643.767885 C38.9968848,644.270011 39.1398487,644.760582 39.3970707,645.196384 C37.1118626,646.383932 35.6503922,648.199674 35.6503922,650.247764 C35.7482205,652.045917 36.7391583,653.685796 38.307611,654.645131 C36.6778502,655.505673 35.6503922,656.856723 35.6503922,658.336855 C35.6503922,661.021745 39.0073453,663.198915 43.1526066,663.198915 C47.2978679,663.198915 50.6548209,661.021745 50.6548209,658.336855 C50.6548209,658.336855 50.6548209,658.276617 50.6548209,658.242195 C51.213509,658.30449 51.7753713,658.336094 52.3377262,658.336855 C57.8558838,658.336855 62.3377262,655.43683 62.3377262,651.865582 C62.3377262,649.877731 60.9559724,648.105015 58.7947678,646.917467 C62.6743072,646.521618 65.6503922,644.542372 65.6503922,642.150067 Z" id="Shape-Copy-15" transform="translate(50.650392, 646.198915) scale(-1, 1) rotate(48.000000) translate(-50.650392, -646.198915) "></path>
        </g>
    </g>
</svg>